<svg id="svg" version="1.1" xmlns="http://www.w3.org/2000/svg" xmlns:xlink="http://www.w3.org/1999/xlink" width="400" height="400" viewBox="0, 0, 400,400"><g id="svgg"><path id="path0" d="M180.800 98.000 C 180.570 98.142,180.207 99.236,179.995 100.429 C 179.551 102.925,179.127 105.136,176.966 116.200 C 176.361 119.295,173.977 131.619,173.638 133.400 C 173.428 134.500,172.981 136.750,172.643 138.400 C 172.306 140.050,171.917 142.300,171.780 143.400 C 171.643 144.500,171.110 147.290,170.596 149.600 C 170.082 151.910,169.367 155.330,169.007 157.200 C 168.647 159.070,168.100 161.860,167.791 163.400 C 167.482 164.940,166.947 167.640,166.604 169.400 C 166.260 171.160,165.790 173.446,165.558 174.480 C 165.326 175.513,164.979 177.313,164.787 178.480 C 164.595 179.646,164.180 181.950,163.865 183.600 C 163.550 185.250,163.087 187.680,162.838 189.000 C 162.588 190.320,162.219 192.120,162.017 193.000 C 161.816 193.880,161.353 196.580,160.988 199.000 C 160.624 201.420,160.084 204.030,159.788 204.800 C 159.295 206.085,158.896 207.986,157.985 213.400 C 157.799 214.500,157.370 216.750,157.031 218.400 C 156.691 220.050,156.241 222.300,156.031 223.400 C 155.221 227.637,154.311 232.321,153.737 235.200 C 153.409 236.850,152.895 239.460,152.596 241.000 C 151.088 248.767,150.693 250.760,150.305 252.578 C 150.073 253.666,149.909 255.106,149.940 255.778 C 149.972 256.450,149.740 258.260,149.425 259.800 C 149.110 261.340,148.563 264.130,148.209 266.000 C 147.219 271.234,146.428 275.148,145.782 278.000 C 145.458 279.430,145.196 280.960,145.200 281.400 C 145.206 282.118,144.926 283.494,143.530 289.600 C 143.304 290.590,142.964 292.390,142.775 293.600 C 142.586 294.810,142.142 297.240,141.789 299.000 C 141.436 300.760,140.896 303.550,140.589 305.200 C 140.054 308.072,139.514 310.832,138.200 317.400 C 137.048 323.158,136.405 326.620,135.970 329.400 C 135.729 330.940,135.502 332.380,135.466 332.600 C 135.422 332.864,146.147 333.000,166.972 333.000 L 198.543 333.000 199.282 329.600 C 199.688 327.730,200.210 325.354,200.442 324.320 C 200.674 323.287,201.021 321.487,201.213 320.320 C 201.707 317.321,202.406 313.704,204.639 302.600 C 204.949 301.060,205.378 298.697,205.593 297.348 C 205.807 296.000,206.167 294.413,206.392 293.822 C 206.616 293.231,206.800 292.290,206.800 291.731 C 206.800 291.172,207.078 289.429,207.417 287.857 C 207.757 286.286,208.303 283.650,208.632 282.000 C 208.961 280.350,209.494 277.830,209.818 276.400 C 210.142 274.970,210.405 273.328,210.403 272.750 C 210.402 272.173,210.670 270.935,211.000 270.000 C 211.330 269.065,211.600 267.615,211.600 266.778 C 211.600 264.008,211.634 264.000,222.929 264.002 C 237.786 264.005,249.999 262.890,260.200 260.600 C 267.219 259.025,271.881 257.720,274.600 256.569 C 275.260 256.290,276.297 255.938,276.904 255.787 C 277.511 255.635,278.106 255.351,278.227 255.156 C 278.348 254.960,278.736 254.800,279.088 254.800 C 279.996 254.800,288.359 250.713,292.400 248.294 C 304.490 241.058,315.419 230.256,322.523 218.521 C 324.744 214.852,327.600 209.176,327.600 208.431 C 327.600 208.194,327.759 208.000,327.953 208.000 C 328.148 208.000,328.403 207.595,328.521 207.100 C 328.741 206.174,329.764 203.217,330.355 201.800 C 331.025 200.196,331.732 197.780,333.458 191.200 C 333.775 189.990,334.188 187.920,334.375 186.600 C 334.563 185.280,334.941 183.030,335.217 181.600 C 335.528 179.982,335.733 175.147,335.758 168.800 C 335.810 155.712,335.240 152.199,331.154 140.400 C 326.902 128.125,315.228 114.694,303.000 108.008 C 299.102 105.876,298.694 105.672,296.600 104.802 C 295.500 104.346,294.287 103.798,293.905 103.586 C 293.523 103.374,293.011 103.200,292.766 103.200 C 292.521 103.200,291.754 102.953,291.060 102.650 C 290.367 102.348,288.630 101.788,287.200 101.405 C 285.770 101.022,284.060 100.535,283.400 100.321 C 282.740 100.108,281.120 99.769,279.800 99.568 C 278.480 99.367,276.500 99.017,275.400 98.788 C 272.363 98.158,181.766 97.403,180.800 98.000 M254.800 155.588 C 258.248 155.970,260.856 156.575,262.660 157.414 C 263.354 157.736,264.037 158.000,264.180 158.000 C 267.078 158.000,275.200 167.604,275.200 171.031 C 275.200 171.476,275.395 172.035,275.633 172.273 C 276.170 172.810,276.209 182.051,275.679 183.077 C 275.473 183.475,275.179 184.497,275.025 185.349 C 274.871 186.201,274.599 187.191,274.420 187.549 C 274.242 187.907,273.717 189.023,273.255 190.028 C 270.304 196.453,264.652 201.371,257.000 204.175 C 252.186 205.939,250.427 206.128,237.179 206.302 C 222.171 206.499,222.979 206.698,223.824 203.000 C 224.390 200.524,225.153 196.818,226.169 191.600 C 226.490 189.950,227.019 187.250,227.344 185.600 C 227.669 183.950,228.231 181.070,228.594 179.200 C 228.956 177.330,229.501 174.540,229.804 173.000 C 230.108 171.460,230.459 169.660,230.584 169.000 C 230.888 167.399,233.109 156.065,233.184 155.729 C 233.305 155.190,250.202 155.080,254.800 155.588 " stroke="none" fill="#1f2935" fill-rule="evenodd"></path><path id="path1" d="M178.116 0.316 C 177.850 0.487,176.500 0.572,175.116 0.504 C 172.023 0.353,169.105 0.722,169.416 1.226 C 169.630 1.572,167.187 1.798,164.800 1.652 C 163.321 1.561,161.933 1.968,162.207 2.412 C 162.409 2.738,158.717 3.063,157.450 2.831 C 157.257 2.795,156.798 3.040,156.430 3.373 C 156.042 3.724,154.883 4.011,153.680 4.053 C 152.244 4.104,151.600 4.293,151.600 4.663 C 151.600 5.189,150.347 5.374,147.890 5.211 C 147.151 5.162,146.816 5.315,146.890 5.669 C 146.965 6.031,146.393 6.264,145.090 6.400 C 144.040 6.510,143.188 6.780,143.198 7.000 C 143.207 7.220,142.218 7.490,141.000 7.600 C 139.782 7.710,138.791 7.980,138.798 8.200 C 138.806 8.420,137.999 8.655,137.006 8.722 C 135.754 8.806,135.200 9.021,135.200 9.422 C 135.200 9.840,134.703 10.000,133.400 10.000 C 132.067 10.000,131.600 10.156,131.600 10.600 C 131.600 11.000,131.200 11.200,130.400 11.200 C 129.600 11.200,129.200 11.400,129.200 11.800 C 129.200 12.247,128.729 12.400,127.357 12.400 C 125.884 12.400,125.561 12.520,125.745 13.000 C 125.916 13.447,125.683 13.600,124.830 13.600 C 124.182 13.600,123.586 13.860,123.455 14.200 C 123.303 14.596,122.677 14.800,121.613 14.800 C 120.726 14.800,120.000 14.966,120.000 15.168 C 120.000 15.371,119.460 15.655,118.800 15.800 C 118.140 15.945,117.600 16.195,117.600 16.355 C 117.600 16.779,114.680 18.000,113.666 18.000 C 113.163 18.000,112.800 18.252,112.800 18.600 C 112.800 19.000,112.400 19.200,111.600 19.200 C 110.800 19.200,110.400 19.400,110.400 19.800 C 110.400 20.130,110.053 20.400,109.629 20.400 C 109.204 20.400,108.587 20.670,108.257 21.000 C 107.927 21.330,107.284 21.600,106.829 21.600 C 106.359 21.600,106.000 21.860,106.000 22.200 C 106.000 22.575,105.621 22.800,104.987 22.800 C 104.431 22.800,103.871 23.070,103.745 23.400 C 103.618 23.730,103.078 24.000,102.545 24.000 C 102.011 24.000,101.471 24.270,101.345 24.600 C 101.211 24.949,100.612 25.200,99.914 25.200 C 99.012 25.200,98.772 25.349,98.945 25.800 C 99.086 26.169,98.944 26.400,98.575 26.400 C 98.245 26.400,97.871 26.670,97.745 27.000 C 97.618 27.330,97.084 27.600,96.557 27.600 C 95.973 27.600,95.600 27.834,95.600 28.200 C 95.600 28.571,95.224 28.800,94.614 28.800 C 94.057 28.800,93.092 29.323,92.400 30.000 C 91.725 30.660,90.819 31.200,90.386 31.200 C 89.954 31.200,89.600 31.464,89.600 31.787 C 89.600 32.145,89.365 32.285,89.000 32.145 C 88.620 31.999,88.400 32.150,88.400 32.557 C 88.400 33.008,88.034 33.200,87.176 33.200 C 86.411 33.200,86.052 33.360,86.217 33.627 C 86.362 33.862,86.103 34.153,85.640 34.274 C 85.178 34.394,84.800 34.742,84.800 35.047 C 84.800 35.351,84.480 35.600,84.089 35.600 C 83.698 35.600,83.063 35.968,82.678 36.417 C 82.293 36.866,81.803 37.126,81.589 36.993 C 81.375 36.861,81.200 37.033,81.200 37.376 C 81.200 37.719,80.930 38.000,80.600 38.000 C 80.270 38.000,80.000 38.270,80.000 38.600 C 80.000 38.930,79.730 39.200,79.400 39.200 C 79.070 39.200,78.710 39.200,78.600 39.200 C 78.234 39.200,76.800 40.794,76.800 41.200 C 76.800 41.420,76.530 41.600,76.200 41.600 C 75.870 41.600,75.600 41.870,75.600 42.200 C 75.600 42.600,75.200 42.800,74.400 42.800 C 73.600 42.800,73.200 43.000,73.200 43.400 C 73.200 43.730,72.930 44.000,72.600 44.000 C 72.270 44.000,72.000 44.270,72.000 44.600 C 72.000 44.930,71.730 45.200,71.400 45.200 C 71.070 45.200,70.800 45.470,70.800 45.800 C 70.800 46.130,70.530 46.400,70.200 46.400 C 69.870 46.400,69.600 46.664,69.600 46.987 C 69.600 47.345,69.365 47.485,69.000 47.345 C 68.620 47.199,68.400 47.350,68.400 47.757 C 68.400 48.111,68.122 48.400,67.783 48.400 C 67.064 48.400,66.675 48.696,63.767 51.457 C 62.575 52.588,61.600 53.713,61.600 53.957 C 61.600 54.201,61.330 54.400,61.000 54.400 C 60.670 54.400,60.400 54.670,60.400 55.000 C 60.400 55.330,60.130 55.600,59.800 55.600 C 59.470 55.600,59.200 55.870,59.200 56.200 C 59.200 56.530,58.930 56.800,58.600 56.800 C 58.270 56.800,58.000 57.070,58.000 57.400 C 58.000 57.730,57.730 58.000,57.400 58.000 C 57.070 58.000,56.800 58.270,56.800 58.600 C 56.800 58.930,56.530 59.200,56.200 59.200 C 55.870 59.200,55.600 59.470,55.600 59.800 C 55.600 60.130,55.330 60.400,55.000 60.400 C 54.670 60.400,54.400 60.670,54.400 61.000 C 54.400 61.330,54.201 61.600,53.957 61.600 C 53.713 61.600,52.588 62.575,51.457 63.767 C 48.696 66.675,48.400 67.064,48.400 67.783 C 48.400 68.122,48.111 68.400,47.757 68.400 C 47.350 68.400,47.199 68.620,47.345 69.000 C 47.485 69.365,47.345 69.600,46.987 69.600 C 46.664 69.600,46.400 69.870,46.400 70.200 C 46.400 70.530,46.130 70.800,45.800 70.800 C 45.470 70.800,45.200 71.070,45.200 71.400 C 45.200 71.730,44.930 72.000,44.600 72.000 C 44.270 72.000,44.000 72.270,44.000 72.600 C 44.000 72.930,43.730 73.200,43.400 73.200 C 43.000 73.200,42.800 73.600,42.800 74.400 C 42.800 75.200,42.600 75.600,42.200 75.600 C 41.870 75.600,41.600 75.870,41.600 76.200 C 41.600 76.530,41.420 76.800,41.200 76.800 C 40.794 76.800,39.200 78.234,39.200 78.600 C 39.200 78.710,39.200 79.070,39.200 79.400 C 39.200 79.730,38.930 80.000,38.600 80.000 C 38.270 80.000,38.000 80.270,38.000 80.600 C 38.000 80.930,37.719 81.200,37.376 81.200 C 37.033 81.200,36.861 81.375,36.993 81.589 C 37.126 81.803,36.866 82.293,36.417 82.678 C 35.968 83.063,35.600 83.698,35.600 84.089 C 35.600 84.480,35.351 84.800,35.047 84.800 C 34.742 84.800,34.394 85.178,34.274 85.640 C 34.153 86.103,33.862 86.362,33.627 86.217 C 33.360 86.052,33.200 86.411,33.200 87.176 C 33.200 88.034,33.008 88.400,32.557 88.400 C 32.150 88.400,31.999 88.620,32.145 89.000 C 32.285 89.365,32.145 89.600,31.787 89.600 C 31.464 89.600,31.200 89.954,31.200 90.386 C 31.200 90.819,30.660 91.725,30.000 92.400 C 29.323 93.092,28.800 94.057,28.800 94.614 C 28.800 95.224,28.571 95.600,28.200 95.600 C 27.834 95.600,27.600 95.973,27.600 96.557 C 27.600 97.084,27.330 97.618,27.000 97.745 C 26.670 97.871,26.400 98.245,26.400 98.575 C 26.400 98.944,26.169 99.086,25.800 98.945 C 25.349 98.772,25.200 99.012,25.200 99.914 C 25.200 100.612,24.949 101.211,24.600 101.345 C 24.270 101.471,24.000 102.011,24.000 102.545 C 24.000 103.078,23.730 103.618,23.400 103.745 C 23.070 103.871,22.800 104.431,22.800 104.987 C 22.800 105.621,22.575 106.000,22.200 106.000 C 21.860 106.000,21.600 106.359,21.600 106.829 C 21.600 107.284,21.330 107.927,21.000 108.257 C 20.670 108.587,20.400 109.204,20.400 109.629 C 20.400 110.053,20.130 110.400,19.800 110.400 C 19.400 110.400,19.200 110.800,19.200 111.600 C 19.200 112.400,19.000 112.800,18.600 112.800 C 18.252 112.800,18.000 113.163,18.000 113.666 C 18.000 114.680,16.779 117.600,16.355 117.600 C 16.195 117.600,15.945 118.140,15.800 118.800 C 15.655 119.460,15.371 120.000,15.168 120.000 C 14.966 120.000,14.800 120.726,14.800 121.613 C 14.800 122.677,14.596 123.303,14.200 123.455 C 13.860 123.586,13.600 124.182,13.600 124.830 C 13.600 125.683,13.447 125.916,13.000 125.745 C 12.520 125.561,12.400 125.884,12.400 127.357 C 12.400 128.729,12.247 129.200,11.800 129.200 C 11.400 129.200,11.200 129.600,11.200 130.400 C 11.200 131.200,11.000 131.600,10.600 131.600 C 10.156 131.600,10.000 132.067,10.000 133.400 C 10.000 134.703,9.840 135.200,9.422 135.200 C 9.016 135.200,8.808 135.766,8.722 137.100 C 8.655 138.145,8.420 138.952,8.200 138.892 C 7.980 138.833,7.710 139.782,7.600 141.000 C 7.490 142.218,7.220 143.207,7.000 143.198 C 6.780 143.188,6.510 144.040,6.400 145.090 C 6.264 146.393,6.031 146.965,5.669 146.890 C 5.315 146.816,5.162 147.151,5.211 147.890 C 5.374 150.347,5.189 151.600,4.663 151.600 C 4.293 151.600,4.104 152.244,4.053 153.680 C 4.011 154.883,3.724 156.042,3.373 156.430 C 3.040 156.798,2.795 157.257,2.831 157.450 C 3.063 158.717,2.738 162.409,2.412 162.207 C 1.968 161.933,1.561 163.321,1.652 164.800 C 1.796 167.151,1.573 169.630,1.235 169.422 C 0.344 168.871,0.289 170.645,0.276 200.000 C 0.264 226.599,0.382 230.141,1.307 230.828 C 1.476 230.953,1.630 232.303,1.650 233.828 C 1.692 237.026,1.905 238.106,2.429 237.782 C 2.738 237.591,3.031 241.043,2.842 242.647 C 2.813 242.892,3.062 243.319,3.395 243.596 C 3.799 243.931,4.000 244.819,4.000 246.273 C 4.000 247.513,4.160 248.348,4.372 248.217 C 4.950 247.860,5.145 248.459,5.243 250.885 C 5.311 252.561,5.468 253.072,5.867 252.919 C 6.268 252.765,6.400 253.220,6.400 254.757 C 6.400 256.306,6.545 256.800,7.000 256.800 C 7.461 256.800,7.600 257.311,7.600 259.000 C 7.600 260.689,7.739 261.200,8.200 261.200 C 8.741 261.200,8.978 262.229,8.910 264.284 C 8.901 264.551,9.098 264.731,9.347 264.684 C 9.619 264.634,9.849 265.357,9.922 266.500 C 10.008 267.834,10.216 268.400,10.622 268.400 C 10.998 268.400,11.200 268.820,11.200 269.600 C 11.200 270.400,11.400 270.800,11.800 270.800 C 12.247 270.800,12.400 271.271,12.400 272.643 C 12.400 274.116,12.520 274.439,13.000 274.255 C 13.462 274.078,13.600 274.344,13.600 275.413 C 13.600 276.379,13.782 276.800,14.200 276.800 C 14.633 276.800,14.800 277.244,14.800 278.400 C 14.800 279.280,14.960 280.000,15.157 280.000 C 15.353 280.000,15.632 280.472,15.776 281.048 C 15.921 281.625,16.301 282.358,16.620 282.677 C 16.939 282.996,17.200 283.604,17.200 284.029 C 17.200 284.453,17.380 284.800,17.600 284.800 C 17.820 284.800,18.000 285.340,18.000 286.000 C 18.000 286.800,18.200 287.200,18.600 287.200 C 19.000 287.200,19.200 287.600,19.200 288.400 C 19.200 289.200,19.400 289.600,19.800 289.600 C 20.173 289.600,20.400 289.978,20.400 290.600 C 20.400 291.222,20.627 291.600,21.000 291.600 C 21.400 291.600,21.600 292.000,21.600 292.800 C 21.600 293.600,21.800 294.000,22.200 294.000 C 22.575 294.000,22.800 294.379,22.800 295.013 C 22.800 295.569,23.070 296.129,23.400 296.255 C 23.730 296.382,24.000 296.922,24.000 297.455 C 24.000 297.989,24.270 298.529,24.600 298.655 C 24.949 298.789,25.200 299.388,25.200 300.086 C 25.200 300.988,25.349 301.228,25.800 301.055 C 26.169 300.914,26.400 301.056,26.400 301.425 C 26.400 301.755,26.670 302.129,27.000 302.255 C 27.330 302.382,27.600 302.897,27.600 303.400 C 27.600 303.903,27.857 304.413,28.171 304.534 C 28.485 304.654,28.800 305.258,28.871 305.876 C 28.944 306.513,29.217 306.957,29.500 306.900 C 29.775 306.845,30.000 306.993,30.000 307.229 C 30.000 307.464,30.270 307.927,30.600 308.257 C 30.930 308.587,31.200 309.204,31.200 309.629 C 31.200 310.053,31.464 310.400,31.787 310.400 C 32.145 310.400,32.285 310.635,32.145 311.000 C 31.999 311.380,32.150 311.600,32.557 311.600 C 33.008 311.600,33.200 311.966,33.200 312.824 C 33.200 313.589,33.360 313.948,33.627 313.783 C 33.862 313.638,34.153 313.897,34.274 314.360 C 34.394 314.822,34.742 315.200,35.047 315.200 C 35.574 315.200,35.760 315.656,35.640 316.654 C 35.610 316.904,35.859 317.214,36.193 317.342 C 36.527 317.470,36.800 317.861,36.800 318.211 C 36.800 318.561,36.992 318.728,37.227 318.583 C 37.462 318.438,37.753 318.697,37.874 319.160 C 37.994 319.622,38.342 320.000,38.647 320.000 C 38.956 320.000,39.200 320.402,39.200 320.911 C 39.200 321.804,40.423 323.200,41.205 323.200 C 41.422 323.200,41.600 323.470,41.600 323.800 C 41.600 324.130,41.870 324.400,42.200 324.400 C 42.600 324.400,42.800 324.800,42.800 325.600 C 42.800 326.400,43.000 326.800,43.400 326.800 C 43.730 326.800,44.000 327.070,44.000 327.400 C 44.000 327.730,44.270 328.000,44.600 328.000 C 44.930 328.000,45.200 328.270,45.200 328.600 C 45.200 328.930,45.470 329.200,45.800 329.200 C 46.130 329.200,46.400 329.470,46.400 329.800 C 46.400 330.130,46.664 330.400,46.987 330.400 C 47.345 330.400,47.485 330.635,47.345 331.000 C 47.199 331.380,47.350 331.600,47.757 331.600 C 48.111 331.600,48.400 331.877,48.400 332.216 C 48.400 333.042,50.040 335.223,50.464 334.961 C 50.649 334.846,50.800 334.958,50.800 335.210 C 50.800 335.643,53.399 338.400,53.807 338.400 C 54.168 338.400,55.600 339.998,55.600 340.400 C 55.600 340.620,55.870 340.800,56.200 340.800 C 56.530 340.800,56.800 341.070,56.800 341.400 C 56.800 341.730,57.070 342.000,57.400 342.000 C 57.730 342.000,58.000 342.270,58.000 342.600 C 58.000 342.930,58.270 343.200,58.600 343.200 C 58.930 343.200,59.200 343.470,59.200 343.800 C 59.200 344.130,59.380 344.400,59.600 344.400 C 60.020 344.400,61.600 345.840,61.600 346.223 C 61.600 346.345,62.500 347.359,63.600 348.477 C 64.700 349.594,65.600 350.360,65.600 350.178 C 65.600 349.996,65.855 350.196,66.168 350.624 C 66.480 351.051,66.930 351.422,67.168 351.450 C 67.405 351.478,67.780 351.523,68.000 351.550 C 68.220 351.578,68.400 351.870,68.400 352.200 C 68.400 352.530,68.558 352.755,68.752 352.700 C 68.945 352.645,69.567 353.095,70.133 353.700 C 70.699 354.305,71.350 354.800,71.581 354.800 C 71.811 354.800,72.000 355.070,72.000 355.400 C 72.000 355.730,72.270 356.000,72.600 356.000 C 72.930 356.000,73.200 356.270,73.200 356.600 C 73.200 357.000,73.600 357.200,74.400 357.200 C 75.200 357.200,75.600 357.400,75.600 357.800 C 75.600 358.130,75.870 358.400,76.200 358.400 C 76.530 358.400,76.800 358.580,76.800 358.800 C 76.800 359.494,78.367 360.800,79.200 360.800 C 79.640 360.800,80.000 361.049,80.000 361.353 C 80.000 361.658,80.378 362.006,80.840 362.126 C 81.303 362.247,81.562 362.538,81.417 362.773 C 81.261 363.024,81.501 363.200,82.000 363.200 C 82.470 363.200,82.736 363.380,82.597 363.605 C 82.458 363.830,82.892 364.118,83.573 364.255 C 84.248 364.390,84.800 364.747,84.800 365.050 C 84.800 365.353,85.070 365.600,85.400 365.600 C 85.730 365.600,86.000 365.848,86.000 366.150 C 86.000 366.473,86.421 366.700,87.019 366.700 C 87.580 366.700,88.294 367.037,88.607 367.450 C 88.919 367.863,89.180 368.025,89.187 367.811 C 89.194 367.597,89.480 367.822,89.823 368.311 C 90.165 368.800,90.730 369.200,91.077 369.200 C 91.424 369.200,92.125 369.650,92.635 370.200 C 93.156 370.762,94.008 371.200,94.581 371.200 C 95.173 371.200,95.558 371.405,95.500 371.691 C 95.445 371.960,95.850 372.248,96.400 372.329 C 96.950 372.410,97.544 372.730,97.720 373.038 C 97.896 373.347,98.295 373.600,98.607 373.600 C 98.947 373.600,99.083 373.840,98.945 374.200 C 98.772 374.651,99.012 374.800,99.914 374.800 C 100.612 374.800,101.211 375.051,101.345 375.400 C 101.471 375.730,102.011 376.000,102.545 376.000 C 103.078 376.000,103.618 376.270,103.745 376.600 C 103.871 376.930,104.431 377.200,104.987 377.200 C 105.621 377.200,106.000 377.425,106.000 377.800 C 106.000 378.166,106.373 378.400,106.957 378.400 C 107.484 378.400,108.013 378.657,108.134 378.971 C 108.254 379.285,108.858 379.600,109.476 379.671 C 110.113 379.744,110.557 380.017,110.500 380.300 C 110.438 380.611,110.853 380.800,111.600 380.800 C 112.400 380.800,112.800 381.000,112.800 381.400 C 112.800 381.800,113.200 382.000,114.000 382.000 C 114.660 382.000,115.200 382.177,115.200 382.392 C 115.200 382.608,115.695 382.906,116.300 383.054 C 116.905 383.202,117.503 383.480,117.629 383.671 C 117.756 383.862,118.295 384.103,118.828 384.205 C 119.361 384.308,119.858 384.574,119.932 384.796 C 120.006 385.018,120.777 385.200,121.646 385.200 C 122.681 385.200,123.304 385.407,123.455 385.800 C 123.586 386.140,124.182 386.400,124.830 386.400 C 125.683 386.400,125.916 386.553,125.745 387.000 C 125.561 387.480,125.884 387.600,127.357 387.600 C 128.729 387.600,129.200 387.753,129.200 388.200 C 129.200 388.622,129.627 388.800,130.643 388.800 C 131.761 388.800,132.034 388.935,131.855 389.400 C 131.672 389.878,131.988 390.000,133.413 390.000 C 134.757 390.000,135.200 390.153,135.200 390.618 C 135.200 390.957,135.425 391.206,135.700 391.170 C 137.316 390.960,138.800 391.252,138.800 391.780 C 138.800 392.206,139.413 392.392,141.100 392.480 C 142.678 392.562,143.369 392.757,143.300 393.100 C 143.230 393.448,143.822 393.600,145.243 393.600 C 146.758 393.600,147.234 393.735,147.085 394.122 C 146.937 394.507,147.453 394.660,149.055 394.706 C 151.380 394.773,152.151 395.033,151.783 395.628 C 151.652 395.840,152.487 396.000,153.727 396.000 C 155.196 396.000,156.068 396.200,156.412 396.615 C 156.693 396.953,157.210 397.202,157.561 397.169 C 159.386 396.995,162.419 397.246,162.228 397.555 C 161.904 398.080,163.461 398.388,166.467 398.395 C 168.240 398.398,169.189 398.567,169.300 398.900 C 169.711 400.133,229.342 400.201,230.573 398.970 C 230.856 398.687,232.350 398.423,234.036 398.358 C 237.369 398.231,238.094 398.076,237.774 397.558 C 237.652 397.361,238.508 397.169,239.676 397.132 C 242.937 397.027,243.070 397.006,243.666 396.511 C 243.973 396.256,245.155 396.005,246.292 395.953 C 247.430 395.901,248.276 395.723,248.173 395.557 C 247.861 395.052,248.543 394.851,250.901 394.756 C 252.253 394.701,253.124 394.492,253.077 394.232 C 253.033 393.986,253.816 393.748,254.900 393.678 C 256.234 393.592,256.800 393.384,256.800 392.978 C 256.800 392.545,257.343 392.400,258.957 392.400 C 260.506 392.400,261.179 392.231,261.345 391.800 C 261.490 391.422,262.102 391.200,263.000 391.200 C 263.898 391.200,264.510 390.978,264.655 390.600 C 264.812 390.193,265.450 390.000,266.643 390.000 C 267.938 390.000,268.400 389.842,268.400 389.400 C 268.400 389.000,268.800 388.800,269.600 388.800 C 270.400 388.800,270.800 388.600,270.800 388.200 C 270.800 387.753,271.271 387.600,272.643 387.600 C 274.116 387.600,274.439 387.480,274.255 387.000 C 274.078 386.538,274.344 386.400,275.413 386.400 C 276.309 386.400,276.765 386.223,276.700 385.900 C 276.635 385.577,277.202 385.356,278.300 385.277 C 279.235 385.209,280.000 384.984,280.000 384.777 C 280.000 384.570,280.441 384.400,280.980 384.400 C 281.519 384.400,282.113 384.127,282.300 383.792 C 282.487 383.458,283.068 383.102,283.591 383.002 C 284.113 382.901,284.655 382.635,284.793 382.411 C 284.932 382.187,285.530 381.964,286.122 381.915 C 286.715 381.866,287.200 381.595,287.200 381.313 C 287.200 381.010,287.691 380.800,288.400 380.800 C 289.200 380.800,289.600 380.600,289.600 380.200 C 289.600 379.825,289.979 379.600,290.613 379.600 C 291.169 379.600,291.729 379.330,291.855 379.000 C 291.982 378.670,292.516 378.400,293.043 378.400 C 293.627 378.400,294.000 378.166,294.000 377.800 C 294.000 377.425,294.379 377.200,295.013 377.200 C 295.569 377.200,296.129 376.930,296.255 376.600 C 296.382 376.270,296.922 376.000,297.455 376.000 C 297.989 376.000,298.529 375.730,298.655 375.400 C 298.789 375.051,299.388 374.800,300.086 374.800 C 300.988 374.800,301.228 374.651,301.055 374.200 C 300.917 373.840,301.053 373.600,301.393 373.600 C 301.705 373.600,302.104 373.347,302.280 373.038 C 302.456 372.730,303.050 372.410,303.600 372.329 C 304.150 372.248,304.555 371.960,304.500 371.691 C 304.440 371.394,304.853 371.200,305.544 371.200 C 306.297 371.200,306.944 370.859,307.439 370.200 C 307.923 369.556,308.583 369.200,309.295 369.200 C 310.127 369.200,310.400 369.006,310.400 368.413 C 310.400 367.877,310.592 367.699,311.000 367.855 C 311.380 368.001,311.600 367.850,311.600 367.443 C 311.600 366.878,312.584 366.563,313.730 366.763 C 313.911 366.794,313.938 366.623,313.789 366.383 C 313.637 366.136,313.884 365.851,314.360 365.726 C 314.822 365.606,315.200 365.258,315.200 364.953 C 315.200 364.628,315.617 364.400,316.213 364.400 C 316.769 364.400,317.329 364.130,317.455 363.800 C 317.582 363.470,317.947 363.200,318.266 363.200 C 318.586 363.200,318.728 363.008,318.583 362.773 C 318.438 362.538,318.697 362.247,319.160 362.126 C 319.622 362.006,320.000 361.658,320.000 361.353 C 320.000 361.044,320.402 360.800,320.911 360.800 C 321.804 360.800,323.200 359.577,323.200 358.795 C 323.200 358.578,323.470 358.400,323.800 358.400 C 324.130 358.400,324.400 358.130,324.400 357.800 C 324.400 357.400,324.800 357.200,325.600 357.200 C 326.400 357.200,326.800 357.000,326.800 356.600 C 326.800 356.270,327.070 356.000,327.400 356.000 C 327.730 356.000,328.000 355.730,328.000 355.400 C 328.000 355.070,328.270 354.800,328.600 354.800 C 328.930 354.800,329.200 354.620,329.200 354.400 C 329.200 354.180,329.470 354.000,329.800 354.000 C 330.130 354.000,330.400 353.730,330.400 353.400 C 330.400 353.070,330.670 352.800,331.000 352.800 C 331.330 352.800,331.600 352.530,331.600 352.200 C 331.600 351.870,331.942 351.600,332.360 351.600 C 333.025 351.600,338.400 346.816,338.400 346.224 C 338.400 345.840,339.979 344.400,340.400 344.400 C 340.620 344.400,340.800 344.130,340.800 343.800 C 340.800 343.470,341.070 343.200,341.400 343.200 C 341.730 343.200,342.000 342.930,342.000 342.600 C 342.000 342.270,342.270 342.000,342.600 342.000 C 342.930 342.000,343.200 341.730,343.200 341.400 C 343.200 341.070,343.470 340.800,343.800 340.800 C 344.130 340.800,344.400 340.620,344.400 340.400 C 344.400 339.979,345.840 338.400,346.224 338.400 C 346.816 338.400,351.600 333.025,351.600 332.360 C 351.600 331.942,351.870 331.600,352.200 331.600 C 352.530 331.600,352.800 331.330,352.800 331.000 C 352.800 330.670,353.070 330.400,353.400 330.400 C 353.730 330.400,354.000 330.130,354.000 329.800 C 354.000 329.470,354.180 329.200,354.400 329.200 C 354.620 329.200,354.800 328.930,354.800 328.600 C 354.800 328.270,355.070 328.000,355.400 328.000 C 355.730 328.000,356.000 327.730,356.000 327.400 C 356.000 327.070,356.270 326.800,356.600 326.800 C 357.000 326.800,357.200 326.400,357.200 325.600 C 357.200 324.800,357.400 324.400,357.800 324.400 C 358.130 324.400,358.400 324.130,358.400 323.800 C 358.400 323.470,358.578 323.200,358.795 323.200 C 359.577 323.200,360.800 321.804,360.800 320.911 C 360.800 320.402,361.044 320.000,361.353 320.000 C 361.658 320.000,362.006 319.622,362.126 319.160 C 362.247 318.697,362.538 318.438,362.773 318.583 C 363.008 318.728,363.200 318.586,363.200 318.266 C 363.200 317.947,363.470 317.582,363.800 317.455 C 364.130 317.329,364.400 316.769,364.400 316.213 C 364.400 315.617,364.628 315.200,364.953 315.200 C 365.258 315.200,365.606 314.822,365.726 314.360 C 365.851 313.884,366.136 313.637,366.383 313.789 C 366.623 313.938,366.794 313.911,366.763 313.730 C 366.563 312.584,366.878 311.600,367.443 311.600 C 367.850 311.600,368.001 311.380,367.855 311.000 C 367.699 310.592,367.877 310.400,368.413 310.400 C 369.006 310.400,369.200 310.127,369.200 309.295 C 369.200 308.583,369.556 307.923,370.200 307.439 C 370.859 306.944,371.200 306.297,371.200 305.544 C 371.200 304.853,371.394 304.440,371.691 304.500 C 371.960 304.555,372.248 304.150,372.329 303.600 C 372.410 303.050,372.730 302.456,373.038 302.280 C 373.347 302.104,373.600 301.705,373.600 301.393 C 373.600 301.053,373.840 300.917,374.200 301.055 C 374.651 301.228,374.800 300.988,374.800 300.086 C 374.800 299.388,375.051 298.789,375.400 298.655 C 375.730 298.529,376.000 297.989,376.000 297.455 C 376.000 296.922,376.270 296.382,376.600 296.255 C 376.930 296.129,377.200 295.569,377.200 295.013 C 377.200 294.379,377.425 294.000,377.800 294.000 C 378.166 294.000,378.400 293.627,378.400 293.043 C 378.400 292.516,378.670 291.982,379.000 291.855 C 379.330 291.729,379.600 291.169,379.600 290.613 C 379.600 289.979,379.825 289.600,380.200 289.600 C 380.600 289.600,380.800 289.200,380.800 288.400 C 380.800 287.691,381.010 287.200,381.313 287.200 C 381.595 287.200,381.866 286.715,381.915 286.122 C 381.964 285.530,382.187 284.932,382.411 284.793 C 382.635 284.655,382.901 284.113,383.002 283.591 C 383.102 283.068,383.458 282.487,383.792 282.300 C 384.127 282.113,384.400 281.519,384.400 280.980 C 384.400 280.441,384.570 280.000,384.777 280.000 C 384.984 280.000,385.209 279.235,385.277 278.300 C 385.356 277.202,385.577 276.635,385.900 276.700 C 386.223 276.765,386.400 276.309,386.400 275.413 C 386.400 274.344,386.538 274.078,387.000 274.255 C 387.480 274.439,387.600 274.116,387.600 272.643 C 387.600 271.271,387.753 270.800,388.200 270.800 C 388.600 270.800,388.800 270.400,388.800 269.600 C 388.800 268.800,389.000 268.400,389.400 268.400 C 389.842 268.400,390.000 267.938,390.000 266.643 C 390.000 265.450,390.193 264.812,390.600 264.655 C 390.978 264.510,391.200 263.898,391.200 263.000 C 391.200 262.102,391.422 261.490,391.800 261.345 C 392.231 261.179,392.400 260.506,392.400 258.957 C 392.400 257.343,392.545 256.800,392.978 256.800 C 393.384 256.800,393.592 256.234,393.678 254.900 C 393.748 253.816,393.986 253.033,394.232 253.077 C 394.492 253.124,394.701 252.253,394.756 250.901 C 394.851 248.543,395.052 247.861,395.557 248.173 C 395.723 248.276,395.901 247.430,395.953 246.292 C 396.005 245.155,396.256 243.973,396.511 243.666 C 397.006 243.070,397.027 242.937,397.132 239.676 C 397.169 238.508,397.361 237.652,397.558 237.774 C 398.076 238.094,398.231 237.369,398.358 234.036 C 398.423 232.350,398.687 230.856,398.970 230.573 C 400.201 229.342,400.133 169.711,398.900 169.300 C 398.567 169.189,398.398 168.240,398.395 166.467 C 398.388 163.461,398.080 161.904,397.555 162.228 C 397.246 162.419,396.995 159.386,397.169 157.561 C 397.202 157.210,396.953 156.693,396.615 156.412 C 396.200 156.068,396.000 155.196,396.000 153.727 C 396.000 152.487,395.840 151.652,395.628 151.783 C 395.033 152.151,394.773 151.380,394.706 149.055 C 394.660 147.453,394.507 146.937,394.122 147.085 C 393.735 147.234,393.600 146.758,393.600 145.243 C 393.600 143.822,393.448 143.230,393.100 143.300 C 392.757 143.369,392.562 142.678,392.480 141.100 C 392.392 139.413,392.206 138.800,391.780 138.800 C 391.252 138.800,390.960 137.316,391.170 135.700 C 391.206 135.425,390.957 135.200,390.618 135.200 C 390.153 135.200,390.000 134.757,390.000 133.413 C 390.000 131.988,389.878 131.672,389.400 131.855 C 388.935 132.034,388.800 131.761,388.800 130.643 C 388.800 129.627,388.622 129.200,388.200 129.200 C 387.753 129.200,387.600 128.729,387.600 127.357 C 387.600 125.884,387.480 125.561,387.000 125.745 C 386.553 125.916,386.400 125.683,386.400 124.830 C 386.400 124.182,386.140 123.586,385.800 123.455 C 385.407 123.304,385.200 122.681,385.200 121.646 C 385.200 120.777,385.018 120.006,384.796 119.932 C 384.574 119.858,384.308 119.361,384.205 118.828 C 384.103 118.295,383.862 117.756,383.671 117.629 C 383.480 117.503,383.202 116.905,383.054 116.300 C 382.906 115.695,382.608 115.200,382.392 115.200 C 382.177 115.200,382.000 114.660,382.000 114.000 C 382.000 113.200,381.800 112.800,381.400 112.800 C 381.000 112.800,380.800 112.400,380.800 111.600 C 380.800 110.853,380.611 110.438,380.300 110.500 C 380.017 110.557,379.744 110.113,379.671 109.476 C 379.600 108.858,379.285 108.254,378.971 108.134 C 378.657 108.013,378.400 107.484,378.400 106.957 C 378.400 106.373,378.166 106.000,377.800 106.000 C 377.425 106.000,377.200 105.621,377.200 104.987 C 377.200 104.431,376.930 103.871,376.600 103.745 C 376.270 103.618,376.000 103.078,376.000 102.545 C 376.000 102.011,375.730 101.471,375.400 101.345 C 375.051 101.211,374.800 100.612,374.800 99.914 C 374.800 99.012,374.651 98.772,374.200 98.945 C 373.840 99.083,373.600 98.947,373.600 98.607 C 373.600 98.295,373.347 97.896,373.038 97.720 C 372.730 97.544,372.410 96.950,372.329 96.400 C 372.248 95.850,371.960 95.445,371.691 95.500 C 371.405 95.558,371.200 95.173,371.200 94.581 C 371.200 94.008,370.762 93.156,370.200 92.635 C 369.650 92.125,369.200 91.424,369.200 91.077 C 369.200 90.730,368.800 90.165,368.311 89.823 C 367.822 89.480,367.597 89.194,367.811 89.187 C 368.025 89.180,367.863 88.919,367.450 88.607 C 367.037 88.294,366.700 87.580,366.700 87.019 C 366.700 86.421,366.473 86.000,366.150 86.000 C 365.848 86.000,365.600 85.730,365.600 85.400 C 365.600 85.070,365.353 84.800,365.050 84.800 C 364.748 84.800,364.390 84.248,364.255 83.573 C 364.118 82.892,363.830 82.458,363.605 82.597 C 363.380 82.736,363.200 82.470,363.200 82.000 C 363.200 81.501,363.024 81.261,362.773 81.417 C 362.538 81.562,362.247 81.303,362.126 80.840 C 362.006 80.378,361.658 80.000,361.353 80.000 C 361.049 80.000,360.800 79.640,360.800 79.200 C 360.800 78.367,359.494 76.800,358.800 76.800 C 358.580 76.800,358.400 76.530,358.400 76.200 C 358.400 75.870,358.130 75.600,357.800 75.600 C 357.400 75.600,357.200 75.200,357.200 74.400 C 357.200 73.600,357.000 73.200,356.600 73.200 C 356.270 73.200,356.000 72.930,356.000 72.600 C 356.000 72.270,355.730 72.000,355.400 72.000 C 355.070 72.000,354.800 71.811,354.800 71.581 C 354.800 71.350,354.305 70.699,353.700 70.133 C 353.095 69.567,352.645 68.945,352.700 68.752 C 352.755 68.558,352.530 68.400,352.200 68.400 C 351.870 68.400,351.578 68.220,351.550 68.000 C 351.523 67.780,351.478 67.405,351.450 67.168 C 351.422 66.930,351.051 66.480,350.624 66.168 C 350.196 65.855,349.996 65.600,350.178 65.600 C 350.360 65.600,349.594 64.700,348.477 63.600 C 347.359 62.500,346.345 61.600,346.223 61.600 C 345.840 61.600,344.400 60.020,344.400 59.600 C 344.400 59.380,344.130 59.200,343.800 59.200 C 343.470 59.200,343.200 58.930,343.200 58.600 C 343.200 58.270,342.930 58.000,342.600 58.000 C 342.270 58.000,342.000 57.730,342.000 57.400 C 342.000 57.070,341.730 56.800,341.400 56.800 C 341.070 56.800,340.800 56.530,340.800 56.200 C 340.800 55.870,340.620 55.600,340.400 55.600 C 339.998 55.600,338.400 54.168,338.400 53.807 C 338.400 53.399,335.643 50.800,335.210 50.800 C 334.958 50.800,334.846 50.649,334.961 50.464 C 335.223 50.040,333.042 48.400,332.216 48.400 C 331.877 48.400,331.600 48.111,331.600 47.757 C 331.600 47.350,331.380 47.199,331.000 47.345 C 330.635 47.485,330.400 47.345,330.400 46.987 C 330.400 46.664,330.130 46.400,329.800 46.400 C 329.470 46.400,329.200 46.130,329.200 45.800 C 329.200 45.470,328.930 45.200,328.600 45.200 C 328.270 45.200,328.000 44.930,328.000 44.600 C 328.000 44.270,327.730 44.000,327.400 44.000 C 327.070 44.000,326.800 43.730,326.800 43.400 C 326.800 43.000,326.400 42.800,325.600 42.800 C 324.800 42.800,324.400 42.600,324.400 42.200 C 324.400 41.870,324.130 41.600,323.800 41.600 C 323.470 41.600,323.200 41.422,323.200 41.205 C 323.200 40.423,321.804 39.200,320.911 39.200 C 320.402 39.200,320.000 38.956,320.000 38.647 C 320.000 38.342,319.622 37.994,319.160 37.874 C 318.697 37.753,318.438 37.462,318.583 37.227 C 318.728 36.992,318.561 36.800,318.211 36.800 C 317.861 36.800,317.470 36.527,317.342 36.193 C 317.214 35.859,316.904 35.610,316.654 35.640 C 315.656 35.760,315.200 35.574,315.200 35.047 C 315.200 34.742,314.822 34.394,314.360 34.274 C 313.897 34.153,313.638 33.862,313.783 33.627 C 313.948 33.360,313.589 33.200,312.824 33.200 C 311.966 33.200,311.600 33.008,311.600 32.557 C 311.600 32.150,311.380 31.999,311.000 32.145 C 310.635 32.285,310.400 32.145,310.400 31.787 C 310.400 31.464,310.042 31.200,309.603 31.200 C 309.165 31.200,308.291 30.660,307.660 30.000 C 307.029 29.340,306.122 28.800,305.644 28.800 C 305.166 28.800,304.671 28.530,304.545 28.200 C 304.418 27.870,303.903 27.600,303.400 27.600 C 302.897 27.600,302.382 27.330,302.255 27.000 C 302.129 26.670,301.755 26.400,301.425 26.400 C 301.056 26.400,300.914 26.169,301.055 25.800 C 301.228 25.349,300.988 25.200,300.086 25.200 C 299.388 25.200,298.789 24.949,298.655 24.600 C 298.529 24.270,297.989 24.000,297.455 24.000 C 296.922 24.000,296.382 23.730,296.255 23.400 C 296.129 23.070,295.569 22.800,295.013 22.800 C 294.379 22.800,294.000 22.575,294.000 22.200 C 294.000 21.800,293.600 21.600,292.800 21.600 C 292.000 21.600,291.600 21.400,291.600 21.000 C 291.600 20.627,291.222 20.400,290.600 20.400 C 289.978 20.400,289.600 20.173,289.600 19.800 C 289.600 19.400,289.200 19.200,288.400 19.200 C 287.600 19.200,287.200 19.000,287.200 18.600 C 287.200 18.200,286.800 18.000,286.000 18.000 C 285.340 18.000,284.800 17.820,284.800 17.600 C 284.800 17.380,284.453 17.200,284.029 17.200 C 283.604 17.200,282.996 16.939,282.677 16.620 C 282.358 16.301,281.625 15.921,281.048 15.776 C 280.472 15.632,280.000 15.353,280.000 15.157 C 280.000 14.960,279.280 14.800,278.400 14.800 C 277.244 14.800,276.800 14.633,276.800 14.200 C 276.800 13.782,276.379 13.600,275.413 13.600 C 274.344 13.600,274.078 13.462,274.255 13.000 C 274.439 12.520,274.116 12.400,272.643 12.400 C 271.271 12.400,270.800 12.247,270.800 11.800 C 270.800 11.400,270.400 11.200,269.600 11.200 C 268.820 11.200,268.400 10.998,268.400 10.622 C 268.400 10.216,267.834 10.008,266.500 9.922 C 265.357 9.849,264.634 9.619,264.684 9.347 C 264.731 9.098,264.551 8.901,264.284 8.910 C 262.229 8.978,261.200 8.741,261.200 8.200 C 261.200 7.739,260.689 7.600,259.000 7.600 C 257.311 7.600,256.800 7.461,256.800 7.000 C 256.800 6.545,256.306 6.400,254.757 6.400 C 253.220 6.400,252.765 6.268,252.919 5.867 C 253.072 5.468,252.561 5.311,250.885 5.243 C 248.459 5.145,247.860 4.950,248.217 4.372 C 248.348 4.160,247.513 4.000,246.273 4.000 C 244.819 4.000,243.931 3.799,243.596 3.395 C 243.319 3.062,242.892 2.813,242.647 2.842 C 241.043 3.031,237.591 2.738,237.782 2.429 C 238.106 1.905,237.026 1.692,233.828 1.650 C 232.303 1.630,230.953 1.476,230.828 1.307 C 230.435 0.778,229.510 0.619,225.800 0.443 C 218.879 0.115,178.596 0.007,178.116 0.316 M174.800 96.361 C 176.575 96.592,196.507 96.768,223.600 96.793 C 251.892 96.819,270.088 96.985,271.200 97.227 C 272.190 97.443,274.440 97.780,276.200 97.976 C 277.960 98.172,280.300 98.543,281.400 98.801 C 286.747 100.053,291.775 101.530,293.166 102.256 C 293.735 102.552,294.408 102.796,294.663 102.798 C 294.918 102.799,295.998 103.232,297.063 103.760 C 298.128 104.288,299.270 104.831,299.600 104.968 C 299.930 105.105,301.280 105.835,302.600 106.591 C 303.920 107.347,305.405 108.149,305.900 108.373 C 306.395 108.597,306.800 108.945,306.800 109.147 C 306.800 109.348,307.250 109.626,307.800 109.764 C 308.350 109.902,308.800 110.192,308.800 110.408 C 308.800 110.623,309.076 110.800,309.413 110.800 C 309.749 110.800,310.129 111.070,310.255 111.400 C 310.382 111.730,310.736 112.000,311.043 112.000 C 311.349 112.000,311.600 112.156,311.600 112.347 C 311.600 112.538,312.275 113.142,313.100 113.691 C 314.820 114.834,319.229 119.128,321.000 121.383 C 321.660 122.223,322.425 123.143,322.700 123.427 C 322.975 123.711,323.200 124.035,323.200 124.147 C 323.200 124.259,323.740 124.942,324.400 125.664 C 325.060 126.387,325.600 127.120,325.600 127.293 C 325.600 127.465,326.140 128.352,326.800 129.263 C 327.460 130.175,328.000 131.086,328.000 131.289 C 328.000 131.491,328.270 131.927,328.600 132.257 C 328.930 132.587,329.200 133.204,329.200 133.629 C 329.200 134.053,329.346 134.400,329.525 134.400 C 329.861 134.400,331.600 138.096,331.600 138.809 C 331.600 139.030,331.771 139.523,331.981 139.905 C 333.535 142.742,335.393 149.525,336.006 154.600 C 336.192 156.140,336.532 158.120,336.763 159.000 C 337.416 161.497,337.296 175.279,336.593 178.600 C 336.267 180.140,336.000 182.267,336.000 183.326 C 336.000 184.386,335.832 185.566,335.627 185.950 C 335.422 186.333,335.069 187.806,334.842 189.223 C 334.276 192.769,333.447 196.287,333.094 196.640 C 332.932 196.801,332.799 197.308,332.798 197.767 C 332.796 198.225,332.526 199.116,332.198 199.746 C 331.869 200.376,331.600 201.159,331.600 201.485 C 331.600 202.034,331.210 203.058,329.804 206.200 C 329.508 206.860,329.158 207.895,329.026 208.500 C 328.893 209.105,328.608 209.600,328.392 209.600 C 328.177 209.600,328.000 209.864,328.000 210.188 C 328.000 210.894,326.367 214.145,325.918 214.333 C 325.743 214.407,325.600 214.790,325.600 215.184 C 325.600 215.579,325.330 216.126,325.000 216.400 C 324.670 216.674,324.400 217.133,324.400 217.420 C 324.400 217.708,324.165 218.181,323.878 218.471 C 323.590 218.762,323.223 219.270,323.062 219.600 C 322.338 221.081,318.967 226.176,318.210 226.933 C 317.867 227.276,316.933 228.421,316.134 229.478 C 314.405 231.765,307.809 238.377,305.025 240.613 C 303.939 241.486,302.724 242.515,302.325 242.900 C 301.926 243.285,301.491 243.600,301.358 243.600 C 301.224 243.600,300.433 244.140,299.600 244.800 C 298.767 245.460,297.905 246.000,297.685 246.000 C 297.465 246.000,297.182 246.270,297.055 246.600 C 296.929 246.930,296.479 247.200,296.055 247.200 C 295.632 247.200,295.182 247.470,295.055 247.800 C 294.929 248.130,294.549 248.400,294.213 248.400 C 293.876 248.400,293.600 248.568,293.600 248.773 C 293.600 248.978,293.195 249.272,292.700 249.427 C 292.205 249.581,291.710 249.835,291.600 249.991 C 291.301 250.415,280.654 255.600,280.082 255.600 C 279.811 255.600,279.277 255.768,278.895 255.974 C 277.195 256.890,275.426 257.600,274.839 257.602 C 274.487 257.604,273.684 257.874,273.054 258.202 C 272.424 258.531,271.514 258.800,271.031 258.800 C 270.548 258.800,269.804 259.064,269.376 259.387 C 268.949 259.710,268.060 259.987,267.400 260.001 C 266.740 260.016,265.750 260.286,265.200 260.600 C 264.650 260.914,263.480 261.184,262.600 261.200 C 261.720 261.216,260.550 261.486,260.000 261.800 C 259.450 262.114,258.001 262.378,256.780 262.386 C 255.559 262.394,254.351 262.609,254.095 262.865 C 253.839 263.121,251.598 263.469,249.115 263.638 C 246.632 263.807,243.790 264.130,242.800 264.355 C 241.768 264.590,235.107 264.773,227.187 264.783 L 213.375 264.800 212.861 266.540 C 212.579 267.496,212.186 269.251,211.989 270.440 C 211.259 274.850,210.742 277.437,210.324 278.773 C 210.089 279.528,209.746 281.148,209.563 282.373 C 208.708 288.098,208.321 290.201,208.014 290.777 C 207.832 291.120,207.553 292.618,207.394 294.106 C 207.235 295.594,206.947 296.909,206.753 297.029 C 206.559 297.149,206.400 298.040,206.400 299.010 C 206.400 299.979,206.148 301.543,205.839 302.486 C 205.531 303.429,205.158 305.235,205.011 306.500 C 204.863 307.765,204.575 308.800,204.371 308.800 C 204.167 308.800,203.999 309.835,203.998 311.100 C 203.996 312.365,203.726 313.916,203.398 314.546 C 203.069 315.176,202.800 316.499,202.800 317.485 C 202.800 318.472,202.547 319.846,202.237 320.540 C 201.928 321.233,201.578 322.863,201.460 324.163 C 201.342 325.462,201.077 326.632,200.872 326.763 C 200.667 326.893,200.425 328.188,200.335 329.641 C 200.236 331.226,199.892 332.705,199.476 333.341 L 198.782 334.400 167.091 334.394 C 149.116 334.390,135.155 334.233,134.834 334.029 C 134.212 333.636,134.152 330.199,134.753 329.434 C 134.940 329.195,135.191 327.868,135.310 326.485 C 135.429 325.102,135.699 323.752,135.910 323.485 C 136.121 323.218,136.392 321.854,136.513 320.454 C 136.634 319.053,136.928 317.712,137.166 317.474 C 137.405 317.235,137.600 316.170,137.600 315.107 C 137.600 314.044,137.870 312.528,138.200 311.738 C 138.530 310.949,138.800 309.586,138.800 308.712 C 138.800 307.837,139.054 306.554,139.364 305.860 C 139.674 305.167,140.020 303.434,140.134 302.010 C 140.248 300.585,140.534 299.355,140.770 299.277 C 141.007 299.198,141.200 298.181,141.200 297.017 C 141.200 295.853,141.470 294.135,141.800 293.200 C 142.130 292.265,142.400 290.914,142.400 290.199 C 142.400 289.483,142.670 288.251,143.000 287.462 C 143.330 286.672,143.600 285.198,143.600 284.187 C 143.600 283.175,143.765 282.039,143.967 281.662 C 144.169 281.284,144.529 279.721,144.768 278.188 C 145.348 274.457,145.979 271.273,146.441 269.743 C 146.650 269.052,146.987 267.342,147.190 265.943 C 147.393 264.544,147.816 261.960,148.131 260.200 C 148.446 258.440,148.625 256.865,148.528 256.700 C 148.432 256.535,140.938 256.397,131.876 256.393 C 122.814 256.389,113.826 256.220,111.903 256.018 C 109.979 255.815,101.519 255.546,93.103 255.419 C 84.686 255.293,74.290 255.001,70.000 254.772 C 65.710 254.543,56.980 254.173,50.600 253.951 C 38.723 253.537,34.882 253.321,33.300 252.979 C 32.284 252.760,32.088 251.695,33.000 251.345 C 33.330 251.218,33.600 250.864,33.600 250.557 C 33.600 250.251,33.735 249.997,33.900 249.994 C 34.065 249.990,34.767 249.495,35.459 248.894 C 36.152 248.292,37.119 247.530,37.608 247.200 C 38.098 246.870,38.726 246.382,39.005 246.115 C 39.284 245.849,40.747 244.691,42.256 243.543 C 43.765 242.394,45.090 241.345,45.200 241.212 C 45.705 240.598,50.453 237.200,50.804 237.200 C 51.022 237.200,51.200 237.058,51.200 236.885 C 51.200 236.562,54.996 233.600,55.411 233.600 C 55.539 233.600,56.219 233.061,56.922 232.402 C 57.625 231.743,58.425 231.203,58.700 231.202 C 58.975 231.201,59.200 231.035,59.200 230.834 C 59.200 230.633,60.055 229.936,61.100 229.286 C 62.145 228.635,63.450 227.723,64.000 227.259 C 65.253 226.201,65.386 226.102,67.809 224.412 C 68.904 223.648,69.980 222.880,70.200 222.705 C 72.501 220.872,76.051 218.400,76.382 218.400 C 76.612 218.400,76.800 218.235,76.800 218.033 C 76.800 217.831,77.475 217.255,78.300 216.755 C 79.125 216.254,79.944 215.609,80.120 215.322 C 80.296 215.035,80.618 214.800,80.837 214.800 C 81.055 214.800,81.451 214.612,81.717 214.381 C 82.167 213.991,86.865 210.638,88.549 209.504 C 88.961 209.227,89.501 208.810,89.749 208.578 C 89.997 208.345,90.470 208.031,90.800 207.880 C 91.679 207.477,92.809 206.742,94.456 205.500 C 95.259 204.895,96.049 204.400,96.213 204.400 C 96.378 204.400,96.712 204.129,96.956 203.798 C 98.034 202.337,101.067 202.223,125.284 202.730 C 151.932 203.289,159.077 203.324,159.336 202.900 C 159.437 202.735,159.583 202.060,159.660 201.400 L 159.800 200.200 148.200 199.946 C 141.820 199.806,124.630 199.494,110.000 199.253 C 95.370 199.012,81.150 198.635,78.400 198.416 C 75.650 198.197,69.916 198.014,65.659 198.009 C 58.566 198.001,48.110 197.475,44.879 196.965 C 42.277 196.553,42.909 195.452,47.922 191.657 C 48.955 190.875,49.980 190.030,50.200 189.779 C 50.420 189.529,51.770 188.449,53.200 187.381 C 54.630 186.312,55.890 185.333,56.000 185.205 C 56.110 185.077,57.100 184.259,58.200 183.386 C 59.300 182.514,60.290 181.701,60.400 181.579 C 60.510 181.458,64.290 178.587,68.800 175.199 C 73.310 171.811,77.238 168.806,77.529 168.520 C 77.819 168.234,78.179 167.997,78.329 167.992 C 78.478 167.988,79.320 167.354,80.200 166.583 C 81.080 165.811,82.520 164.690,83.400 164.091 C 84.280 163.492,85.090 162.907,85.200 162.791 C 85.887 162.065,88.783 160.000,89.115 160.000 C 89.335 160.000,89.618 159.730,89.745 159.400 C 89.871 159.070,90.236 158.800,90.554 158.800 C 90.873 158.800,91.193 158.665,91.267 158.500 C 91.471 158.040,97.164 154.000,97.608 154.000 C 97.824 154.000,98.000 153.849,98.000 153.665 C 98.000 153.481,99.395 152.388,101.100 151.236 C 102.805 150.084,104.830 148.684,105.600 148.125 L 107.000 147.108 125.000 147.367 C 134.900 147.509,148.850 147.770,156.000 147.947 C 170.718 148.311,170.400 148.338,170.400 146.753 L 170.400 145.600 164.500 145.555 C 122.910 145.238,75.703 144.258,70.636 143.607 C 68.896 143.383,65.916 143.200,64.013 143.200 C 58.124 143.200,58.144 142.618,64.200 137.793 C 65.300 136.917,66.290 136.110,66.400 136.000 C 66.510 135.890,67.500 135.084,68.600 134.208 C 69.700 133.333,70.812 132.413,71.072 132.165 C 71.331 131.917,73.086 130.571,74.972 129.174 C 76.857 127.778,78.400 126.492,78.400 126.318 C 78.400 126.143,78.670 126.000,79.000 126.000 C 79.330 126.000,79.600 125.832,79.600 125.627 C 79.600 125.422,79.915 125.150,80.300 125.023 C 80.685 124.896,81.567 124.299,82.259 123.696 C 82.952 123.093,83.913 122.330,84.396 122.000 C 84.879 121.670,85.603 121.130,86.005 120.800 C 86.406 120.470,87.155 119.896,87.668 119.524 C 88.180 119.153,89.320 118.302,90.200 117.633 C 91.080 116.965,92.610 115.839,93.600 115.132 C 94.590 114.425,95.460 113.701,95.533 113.523 C 95.607 113.345,95.922 113.200,96.233 113.200 C 96.545 113.200,96.800 113.065,96.801 112.900 C 96.801 112.735,97.611 112.088,98.601 111.463 C 99.590 110.838,100.400 110.163,100.400 109.963 C 100.400 109.763,100.588 109.600,100.817 109.600 C 101.046 109.600,101.451 109.412,101.717 109.181 C 101.983 108.951,103.460 107.880,105.000 106.800 C 106.540 105.720,108.017 104.649,108.283 104.419 C 108.549 104.188,108.871 104.000,108.999 104.000 C 109.311 104.000,111.524 102.420,112.781 101.300 C 113.337 100.805,113.948 100.400,114.138 100.400 C 114.329 100.400,115.141 99.890,115.942 99.266 C 116.744 98.643,117.670 98.014,118.000 97.869 C 118.843 97.498,120.061 96.697,120.754 96.057 C 121.453 95.412,169.572 95.683,174.800 96.361 M234.400 156.440 C 234.400 156.681,234.146 157.446,233.836 158.140 C 233.526 158.833,233.181 160.546,233.070 161.946 C 232.959 163.347,232.672 164.688,232.434 164.926 C 232.195 165.165,231.999 166.179,231.998 167.180 C 231.996 168.181,231.726 169.516,231.398 170.146 C 231.069 170.776,230.800 172.177,230.800 173.259 C 230.800 174.340,230.530 175.872,230.200 176.662 C 229.870 177.451,229.600 178.801,229.600 179.662 C 229.600 180.522,229.330 181.872,229.000 182.662 C 228.670 183.451,228.397 184.751,228.394 185.549 C 228.391 186.347,228.129 187.720,227.812 188.600 C 227.495 189.480,227.225 190.920,227.212 191.800 C 227.199 192.680,226.929 194.120,226.612 195.000 C 226.295 195.880,226.027 197.329,226.018 198.220 C 226.008 199.111,225.842 200.011,225.649 200.220 C 225.455 200.429,225.176 201.725,225.029 203.100 L 224.760 205.600 235.880 205.596 C 244.573 205.592,247.429 205.461,248.964 204.996 C 250.044 204.668,251.574 204.394,252.364 204.386 C 253.154 204.378,254.250 204.114,254.800 203.800 C 255.350 203.486,256.183 203.222,256.651 203.214 C 257.119 203.206,257.726 202.930,258.000 202.600 C 258.274 202.270,258.849 202.000,259.278 202.000 C 259.706 202.000,260.327 201.730,260.657 201.400 C 260.987 201.070,261.585 200.800,261.986 200.800 C 262.387 200.800,262.818 200.530,262.945 200.200 C 263.071 199.870,263.368 199.600,263.604 199.600 C 265.479 199.600,273.200 189.958,273.200 187.617 C 273.200 187.416,273.415 186.745,273.677 186.126 C 275.149 182.651,275.209 172.594,273.774 169.938 C 273.458 169.354,273.200 168.589,273.200 168.238 C 273.200 167.887,273.040 167.600,272.843 167.600 C 272.647 167.600,272.379 167.171,272.247 166.647 C 271.999 165.655,267.507 160.800,266.839 160.800 C 266.629 160.800,266.217 160.575,265.922 160.300 C 265.192 159.617,262.837 158.483,261.500 158.170 C 260.895 158.029,260.400 157.753,260.400 157.557 C 260.400 157.360,259.635 157.198,258.700 157.195 C 257.765 157.193,256.010 156.925,254.800 156.600 C 252.044 155.860,234.400 155.722,234.400 156.440 " stroke="none" fill="#e3e3e3" fill-rule="evenodd"></path><path id="path2" d="M118.600 98.590 C 113.272 102.204,110.505 104.108,107.687 106.096 C 106.209 107.139,104.666 108.219,104.259 108.496 C 102.141 109.935,77.435 128.339,75.800 129.695 C 75.150 130.234,71.827 132.846,67.151 136.494 C 64.166 138.822,61.200 141.544,61.200 141.954 C 61.200 142.371,81.061 143.185,101.000 143.586 C 110.240 143.772,126.350 144.130,136.800 144.380 C 147.250 144.631,159.342 144.873,163.670 144.918 L 171.540 145.000 171.785 143.200 C 171.920 142.210,172.306 140.050,172.643 138.400 C 172.981 136.750,173.428 134.500,173.638 133.400 C 173.977 131.619,176.361 119.295,176.966 116.200 C 179.127 105.136,179.551 102.925,179.995 100.429 C 180.433 97.967,180.760 97.650,183.000 97.519 C 185.898 97.349,163.372 96.861,142.400 96.638 L 121.800 96.420 118.600 98.590 " stroke="none" fill="#bb2d2d" fill-rule="evenodd"></path><path id="path3" d="M107.453 148.414 C 106.602 148.630,105.227 149.345,104.396 150.003 C 103.565 150.662,102.768 151.200,102.626 151.200 C 102.483 151.200,102.149 151.389,101.883 151.620 C 101.617 151.851,99.780 153.195,97.800 154.606 C 95.820 156.018,94.020 157.322,93.800 157.504 C 93.580 157.686,92.775 158.278,92.011 158.818 C 91.247 159.358,90.373 160.031,90.068 160.314 C 89.764 160.597,88.409 161.578,87.057 162.494 C 85.706 163.410,84.152 164.574,83.604 165.080 C 83.056 165.586,82.484 166.000,82.333 166.000 C 82.181 166.000,81.819 166.237,81.529 166.526 C 81.238 166.815,77.580 169.628,73.400 172.778 C 69.220 175.927,65.260 178.943,64.600 179.480 C 63.940 180.016,63.083 180.713,62.695 181.028 C 62.308 181.342,61.828 181.600,61.629 181.600 C 61.430 181.600,61.207 181.757,61.133 181.950 C 61.060 182.142,59.748 183.255,58.218 184.424 C 56.688 185.592,55.068 186.857,54.618 187.233 C 54.168 187.610,51.672 189.669,49.070 191.809 C 43.492 196.398,43.454 196.283,50.600 196.512 C 53.680 196.610,61.060 196.892,67.000 197.137 C 90.172 198.095,105.254 198.452,131.800 198.674 C 150.203 198.828,159.577 199.046,159.930 199.327 C 160.465 199.751,161.169 199.127,161.202 198.200 C 161.227 197.498,161.977 193.101,162.602 190.000 C 163.618 184.953,164.424 180.704,164.789 178.480 C 164.980 177.313,165.326 175.513,165.558 174.480 C 165.790 173.446,166.260 171.160,166.604 169.400 C 166.947 167.640,167.482 164.940,167.791 163.400 C 168.333 160.699,169.175 156.371,169.968 152.199 C 170.178 151.099,170.458 149.913,170.592 149.565 C 170.812 148.993,168.382 148.906,145.518 148.667 C 131.593 148.522,117.680 148.317,114.600 148.212 C 111.520 148.107,108.304 148.198,107.453 148.414 " stroke="none" fill="#7ccc2c" fill-rule="evenodd"></path><path id="path4" d="M210.500 97.900 C 220.565 97.959,237.035 97.959,247.100 97.900 C 257.165 97.840,248.930 97.792,228.800 97.792 C 208.670 97.792,200.435 97.840,210.500 97.900 M268.505 98.287 C 269.114 98.379,270.014 98.377,270.505 98.282 C 270.997 98.187,270.500 98.111,269.400 98.114 C 268.300 98.117,267.897 98.195,268.505 98.287 M314.783 116.500 C 316.441 118.266,316.800 118.584,316.800 118.283 C 316.800 118.219,315.945 117.364,314.900 116.383 L 313.000 114.600 314.783 116.500 M318.783 120.500 C 319.764 121.545,320.619 122.400,320.683 122.400 C 320.984 122.400,320.666 122.041,318.900 120.383 L 317.000 118.600 318.783 120.500 M330.828 139.800 C 330.828 140.020,331.086 140.650,331.400 141.200 C 331.714 141.750,331.972 142.020,331.972 141.800 C 331.972 141.580,331.714 140.950,331.400 140.400 C 331.086 139.850,330.828 139.580,330.828 139.800 M238.900 155.499 C 241.485 155.568,245.715 155.568,248.300 155.499 C 250.885 155.429,248.770 155.372,243.600 155.372 C 238.430 155.372,236.315 155.429,238.900 155.499 M335.709 160.800 C 335.709 161.790,335.787 162.195,335.882 161.700 C 335.978 161.205,335.978 160.395,335.882 159.900 C 335.787 159.405,335.709 159.810,335.709 160.800 M336.144 168.400 C 336.144 170.490,336.212 171.345,336.294 170.300 C 336.376 169.255,336.376 167.545,336.294 166.500 C 336.212 165.455,336.144 166.310,336.144 168.400 M335.714 175.800 C 335.717 176.900,335.795 177.303,335.887 176.695 C 335.979 176.086,335.977 175.186,335.882 174.695 C 335.787 174.203,335.711 174.700,335.714 175.800 M275.646 181.667 C 275.621 182.034,275.496 182.664,275.370 183.067 C 275.152 183.762,275.163 183.763,275.597 183.087 C 275.848 182.696,275.973 182.066,275.873 181.687 C 275.711 181.068,275.688 181.066,275.646 181.667 M159.833 203.500 C 159.668 203.665,145.989 203.735,129.435 203.655 C 96.119 203.493,98.626 203.318,95.142 206.055 C 94.341 206.685,93.557 207.200,93.400 207.200 C 93.243 207.200,92.433 207.740,91.600 208.400 C 90.767 209.060,89.968 209.600,89.826 209.600 C 89.683 209.600,89.349 209.792,89.083 210.028 C 88.672 210.392,87.335 211.350,81.000 215.823 C 79.741 216.712,63.846 228.351,63.400 228.711 C 63.180 228.888,62.190 229.592,61.200 230.274 C 60.210 230.957,59.013 231.849,58.540 232.258 C 58.068 232.666,56.287 233.990,54.584 235.200 C 52.880 236.410,50.451 238.255,49.185 239.300 C 47.919 240.345,46.699 241.200,46.475 241.200 C 46.250 241.200,46.007 241.341,45.933 241.514 C 45.860 241.687,44.180 243.080,42.200 244.610 C 40.220 246.140,38.251 247.709,37.824 248.096 C 37.397 248.484,36.497 249.180,35.824 249.642 C 35.151 250.105,34.277 250.915,33.881 251.442 L 33.163 252.400 34.681 252.428 C 35.517 252.443,39.350 252.617,43.200 252.814 C 54.453 253.391,83.754 254.397,100.200 254.771 C 108.560 254.962,123.086 255.349,132.480 255.632 L 149.561 256.147 149.724 257.173 C 149.814 257.738,149.885 257.385,149.882 256.390 C 149.879 255.394,150.068 253.684,150.302 252.590 C 150.693 250.761,151.085 248.778,152.596 241.000 C 152.895 239.460,153.409 236.850,153.737 235.200 C 154.311 232.321,155.221 227.637,156.031 223.400 C 156.241 222.300,156.690 220.050,157.029 218.400 C 157.367 216.750,157.814 214.410,158.021 213.200 C 158.955 207.748,159.491 205.333,159.960 204.466 C 160.468 203.526,160.392 202.942,159.833 203.500 M223.212 205.051 C 223.182 206.151,224.381 206.426,228.658 206.299 L 233.000 206.170 228.520 206.085 C 224.732 206.013,223.977 205.892,223.632 205.300 C 223.408 204.915,223.219 204.803,223.212 205.051 M245.100 206.282 C 245.595 206.378,246.405 206.378,246.900 206.282 C 247.395 206.187,246.990 206.109,246.000 206.109 C 245.010 206.109,244.605 206.187,245.100 206.282 M318.000 225.200 C 317.530 225.860,317.236 226.400,317.346 226.400 C 317.456 226.400,317.930 225.860,318.400 225.200 C 318.870 224.540,319.164 224.000,319.054 224.000 C 318.944 224.000,318.470 224.540,318.000 225.200 M309.588 235.100 L 307.000 237.800 309.700 235.212 C 311.185 233.788,312.400 232.573,312.400 232.512 C 312.400 232.217,311.993 232.592,309.588 235.100 M246.500 263.076 C 246.885 263.176,247.515 263.176,247.900 263.076 C 248.285 262.975,247.970 262.893,247.200 262.893 C 246.430 262.893,246.115 262.975,246.500 263.076 M239.700 263.476 C 240.085 263.576,240.715 263.576,241.100 263.476 C 241.485 263.375,241.170 263.293,240.400 263.293 C 239.630 263.293,239.315 263.375,239.700 263.476 M236.105 263.887 C 236.714 263.979,237.614 263.977,238.105 263.882 C 238.597 263.787,238.100 263.711,237.000 263.714 C 235.900 263.717,235.497 263.795,236.105 263.887 M145.429 278.229 C 145.281 278.815,145.238 279.372,145.332 279.466 C 145.427 279.560,145.624 279.158,145.771 278.571 C 145.919 277.985,145.962 277.428,145.868 277.334 C 145.773 277.240,145.576 277.642,145.429 278.229 M207.429 287.829 C 207.281 288.415,207.238 288.972,207.332 289.066 C 207.427 289.160,207.624 288.758,207.771 288.171 C 207.919 287.585,207.962 287.028,207.868 286.934 C 207.773 286.840,207.576 287.242,207.429 287.829 M142.446 294.467 C 142.421 294.834,142.296 295.464,142.170 295.867 C 141.952 296.562,141.963 296.563,142.397 295.887 C 142.648 295.496,142.773 294.866,142.673 294.487 C 142.511 293.868,142.488 293.866,142.446 294.467 M203.829 306.229 C 203.681 306.815,203.638 307.372,203.732 307.466 C 203.827 307.560,204.024 307.158,204.171 306.571 C 204.319 305.985,204.362 305.428,204.268 305.334 C 204.173 305.240,203.976 305.642,203.829 306.229 M167.200 333.200 L 135.800 333.407 167.076 333.504 C 187.600 333.567,198.438 333.462,198.600 333.200 C 198.736 332.980,198.792 332.843,198.724 332.896 C 198.656 332.949,184.470 333.086,167.200 333.200 " stroke="none" fill="#558fb0" fill-rule="evenodd"></path><path id="path5" d="M184.538 97.300 C 184.436 97.465,201.885 97.600,223.314 97.600 C 244.743 97.600,264.239 97.685,266.638 97.789 C 270.022 97.936,270.596 97.893,269.200 97.598 C 267.056 97.146,184.812 96.856,184.538 97.300 M273.800 98.437 C 276.233 98.723,278.106 99.056,283.800 100.218 C 284.705 100.402,284.852 100.359,284.400 100.043 C 284.070 99.812,282.990 99.507,282.000 99.366 C 281.010 99.224,279.217 98.859,278.016 98.554 C 276.815 98.249,274.745 98.024,273.416 98.054 L 271.000 98.109 273.800 98.437 M285.400 100.597 C 285.620 100.670,287.600 101.303,289.800 102.004 C 292.000 102.705,293.971 103.440,294.180 103.639 C 294.389 103.838,294.834 104.000,295.169 104.000 C 295.912 104.000,294.648 103.059,293.400 102.684 C 292.960 102.551,291.256 101.983,289.614 101.422 C 287.972 100.860,286.262 100.414,285.814 100.432 C 285.366 100.449,285.180 100.523,285.400 100.597 M298.168 105.222 C 299.471 105.868,300.596 106.337,300.669 106.264 C 300.852 106.082,296.683 103.994,296.194 104.023 C 295.977 104.036,296.866 104.576,298.168 105.222 M301.305 106.638 C 301.435 106.769,302.686 107.544,304.084 108.361 C 313.952 114.127,323.666 124.345,328.595 134.141 C 329.242 135.429,329.829 136.314,329.897 136.109 C 330.900 133.100,311.985 110.800,308.429 110.800 C 308.230 110.800,308.007 110.656,307.933 110.480 C 307.789 110.134,301.736 106.400,301.319 106.400 C 301.180 106.400,301.174 106.507,301.305 106.638 M330.013 136.851 C 330.006 136.989,330.300 137.799,330.667 138.651 C 331.033 139.503,331.835 141.640,332.447 143.400 C 333.060 145.160,333.564 146.240,333.567 145.800 C 333.575 144.916,332.437 141.494,331.682 140.126 C 331.417 139.646,331.200 139.005,331.200 138.703 C 331.200 138.166,330.038 136.354,330.013 136.851 M333.632 146.972 C 333.615 147.176,333.769 147.896,333.976 148.572 C 334.525 150.369,335.591 155.948,335.738 157.800 C 335.836 159.030,335.881 158.883,335.933 157.164 C 335.970 155.934,335.732 154.044,335.404 152.964 C 335.077 151.884,334.799 150.550,334.786 150.000 C 334.765 149.028,333.698 146.228,333.632 146.972 M233.190 156.626 C 232.976 157.190,232.825 158.225,232.854 158.926 C 232.900 159.990,232.936 160.035,233.073 159.200 C 233.163 158.650,233.431 157.705,233.667 157.100 L 234.097 156.000 244.549 155.999 C 254.813 155.998,258.997 156.405,261.295 157.630 C 262.280 158.155,263.158 158.068,262.243 157.536 C 259.667 156.040,255.641 155.600,244.539 155.600 L 233.580 155.600 233.190 156.626 M263.811 158.546 C 264.245 158.846,265.005 159.219,265.500 159.373 C 265.995 159.528,266.400 159.822,266.400 160.027 C 266.400 160.232,266.597 160.400,266.838 160.400 C 268.187 160.400,272.771 166.070,274.114 169.400 C 274.468 170.280,274.768 170.697,274.779 170.327 C 274.857 167.785,269.791 161.443,265.899 159.211 C 263.774 157.993,262.361 157.543,263.811 158.546 M336.174 168.400 C 336.174 173.350,336.304 176.680,336.464 175.800 C 336.623 174.920,336.754 171.590,336.754 168.400 C 336.754 165.210,336.623 161.880,336.464 161.000 C 336.304 160.120,336.174 163.450,336.174 168.400 M232.055 162.420 C 231.756 163.641,231.600 164.991,231.709 165.420 C 231.853 165.986,231.920 165.891,231.954 165.074 C 231.979 164.454,232.191 163.590,232.425 163.154 C 232.658 162.718,232.793 161.874,232.725 161.280 C 232.628 160.442,232.478 160.698,232.055 162.420 M230.822 168.900 C 229.662 174.845,229.126 177.520,228.733 179.324 C 228.503 180.382,228.407 181.340,228.520 181.454 C 228.793 181.727,229.073 180.749,229.625 177.600 C 229.875 176.170,230.344 173.650,230.665 172.000 C 231.544 167.491,231.706 166.400,231.498 166.400 C 231.394 166.400,231.090 167.525,230.822 168.900 M275.086 172.800 C 275.455 175.057,275.454 179.970,275.084 182.600 L 274.803 184.600 275.394 182.600 C 276.145 180.057,276.129 174.263,275.365 172.400 L 274.792 171.000 275.086 172.800 M335.676 179.391 C 335.606 181.234,334.964 185.047,333.937 189.724 C 333.704 190.782,333.610 191.744,333.728 191.861 C 334.013 192.147,334.795 189.277,334.798 187.932 C 334.799 187.345,335.079 185.775,335.420 184.443 C 335.764 183.100,335.976 180.993,335.896 179.711 L 335.751 177.400 335.676 179.391 M228.060 183.003 C 228.027 183.664,227.815 184.834,227.590 185.603 C 227.364 186.371,227.010 187.990,226.802 189.200 C 226.595 190.410,226.164 192.750,225.845 194.400 C 225.526 196.050,225.161 198.120,225.033 199.000 C 224.685 201.385,225.525 198.895,225.977 196.200 C 226.541 192.836,227.196 189.528,227.846 186.763 C 228.186 185.313,228.388 183.603,228.293 182.963 L 228.120 181.800 228.060 183.003 M273.840 186.929 C 273.447 188.177,272.963 189.299,272.763 189.423 C 272.563 189.546,272.400 189.947,272.400 190.313 C 272.400 190.871,272.485 190.851,272.927 190.189 C 273.710 189.017,274.890 185.669,274.710 185.130 C 274.624 184.872,274.232 185.681,273.840 186.929 M270.681 193.267 C 268.458 196.688,262.894 201.343,260.000 202.201 C 259.450 202.364,258.820 202.625,258.600 202.780 C 257.844 203.314,254.598 204.341,252.800 204.615 C 251.810 204.766,250.730 205.061,250.400 205.269 C 249.773 205.665,250.334 205.597,254.000 204.831 C 258.433 203.904,264.493 200.621,267.876 197.314 C 269.969 195.268,272.611 191.677,272.272 191.339 C 272.159 191.226,271.443 192.094,270.681 193.267 M333.246 193.081 C 333.221 193.566,333.036 194.376,332.835 194.881 C 332.634 195.387,331.897 197.600,331.197 199.800 C 322.509 227.118,302.616 246.897,273.400 257.268 C 270.980 258.127,269.540 258.752,270.200 258.656 C 271.667 258.444,277.005 256.589,278.462 255.786 C 279.046 255.464,279.746 255.200,280.017 255.200 C 280.611 255.200,292.514 249.254,292.800 248.815 C 292.910 248.646,293.405 248.381,293.900 248.227 C 294.395 248.072,294.800 247.778,294.800 247.573 C 294.800 247.368,294.976 247.200,295.192 247.200 C 296.256 247.200,303.117 241.927,307.943 237.400 C 312.069 233.531,312.394 233.200,314.143 231.101 C 314.991 230.082,316.216 228.654,316.865 227.927 C 318.351 226.263,322.000 220.905,322.000 220.388 C 322.000 220.175,322.168 220.000,322.373 220.000 C 322.578 220.000,322.872 219.595,323.027 219.100 C 323.181 218.605,323.419 218.110,323.554 218.000 C 324.232 217.448,327.735 210.339,329.566 205.800 C 329.744 205.360,330.184 204.319,330.545 203.486 C 330.905 202.654,331.200 201.715,331.200 201.400 C 331.200 201.085,331.448 200.236,331.751 199.514 C 332.823 196.960,333.682 193.724,333.489 192.967 C 333.317 192.295,333.287 192.309,333.246 193.081 M160.070 201.051 C 159.972 203.371,159.559 203.557,154.175 203.701 L 149.400 203.828 154.224 203.914 C 160.042 204.018,160.527 203.800,160.297 201.185 L 160.140 199.400 160.070 201.051 M224.225 202.500 C 223.624 206.152,222.789 205.757,231.931 206.142 C 236.843 206.349,241.991 206.334,244.931 206.104 C 249.310 205.761,248.496 205.716,236.857 205.661 C 224.701 205.604,223.932 205.557,224.201 204.900 C 224.573 203.995,224.965 200.800,224.705 200.800 C 224.595 200.800,224.379 201.565,224.225 202.500 M105.874 203.499 C 109.655 203.565,115.955 203.565,119.874 203.499 C 123.793 203.434,120.700 203.380,113.000 203.380 C 105.300 203.380,102.093 203.434,105.874 203.499 M91.029 208.411 C 90.165 209.065,89.625 209.595,89.829 209.589 C 90.207 209.578,93.165 207.221,92.800 207.222 C 92.690 207.222,91.893 207.757,91.029 208.411 M85.800 212.032 C 83.427 213.826,83.108 214.332,85.333 212.772 C 87.014 211.594,87.929 210.775,87.524 210.811 C 87.456 210.817,86.680 211.367,85.800 212.032 M78.479 217.235 C 77.555 217.914,76.800 218.566,76.800 218.684 C 76.800 218.801,77.025 218.716,77.300 218.495 C 77.575 218.273,78.500 217.621,79.356 217.046 C 80.212 216.471,80.742 216.000,80.535 216.000 C 80.327 216.000,79.402 216.556,78.479 217.235 M73.185 221.229 L 71.800 222.458 73.300 221.381 C 74.626 220.430,75.057 220.000,74.685 220.000 C 74.622 220.000,73.947 220.553,73.185 221.229 M69.000 224.232 C 67.680 225.228,66.420 226.242,66.200 226.485 C 65.706 227.032,68.963 224.758,70.600 223.414 C 72.605 221.767,71.554 222.305,69.000 224.232 M56.800 233.235 L 55.400 234.448 56.895 233.524 C 57.717 233.016,58.392 232.465,58.395 232.300 C 58.402 231.864,58.338 231.902,56.800 233.235 M41.600 244.646 C 40.610 245.419,39.530 246.338,39.200 246.688 C 38.870 247.038,39.725 246.476,41.100 245.439 C 42.475 244.402,43.600 243.474,43.600 243.377 C 43.600 243.099,43.506 243.159,41.600 244.646 M34.700 252.689 C 35.415 252.778,36.585 252.778,37.300 252.689 C 38.015 252.601,37.430 252.528,36.000 252.528 C 34.570 252.528,33.985 252.601,34.700 252.689 M45.800 253.213 C 47.340 253.371,49.680 253.496,51.000 253.489 L 53.400 253.478 50.800 253.186 C 49.370 253.025,47.030 252.901,45.600 252.910 L 43.000 252.926 45.800 253.213 M59.282 253.896 C 60.758 253.973,63.278 253.973,64.882 253.897 C 66.487 253.821,65.280 253.758,62.200 253.758 C 59.120 253.757,57.807 253.819,59.282 253.896 M78.200 254.419 C 80.400 254.577,83.640 254.698,85.400 254.687 L 88.600 254.668 84.600 254.381 C 82.400 254.223,79.160 254.102,77.400 254.113 L 74.200 254.132 78.200 254.419 M100.880 255.098 C 102.794 255.171,106.034 255.171,108.080 255.098 C 110.126 255.026,108.560 254.966,104.600 254.965 C 100.640 254.965,98.966 255.024,100.880 255.098 M116.500 255.496 C 117.765 255.575,119.835 255.575,121.100 255.496 C 122.365 255.416,121.330 255.351,118.800 255.351 C 116.270 255.351,115.235 255.416,116.500 255.496 M127.700 255.897 C 129.405 255.972,132.195 255.972,133.900 255.897 C 135.605 255.822,134.210 255.761,130.800 255.761 C 127.390 255.761,125.995 255.822,127.700 255.897 M148.772 256.374 C 149.380 256.759,149.419 256.446,147.823 264.000 C 147.475 265.650,147.215 267.540,147.245 268.200 C 147.306 269.519,147.370 269.260,148.385 263.600 C 148.641 262.170,149.019 260.447,149.225 259.772 C 149.853 257.715,149.704 255.999,148.900 256.006 C 148.328 256.011,148.304 256.078,148.772 256.374 M267.000 259.180 C 265.516 259.785,256.187 261.774,251.600 262.464 C 249.730 262.745,248.649 263.043,249.197 263.128 C 249.746 263.212,251.096 263.094,252.197 262.866 C 253.299 262.638,255.280 262.265,256.600 262.038 C 257.920 261.812,260.170 261.344,261.600 261.000 C 263.030 260.656,265.100 260.186,266.200 259.956 C 267.300 259.726,268.371 259.372,268.580 259.169 C 269.048 258.714,268.127 258.721,267.000 259.180 M240.000 263.620 C 239.010 263.797,232.609 263.954,225.776 263.970 C 211.533 264.004,212.266 263.816,211.625 267.600 C 211.382 269.030,210.916 271.550,210.587 273.200 C 209.634 277.995,209.487 279.212,210.006 278.021 C 210.241 277.482,210.587 276.042,210.776 274.821 C 211.296 271.456,212.002 267.982,212.528 266.200 L 213.000 264.600 227.200 264.321 C 235.010 264.168,242.750 263.882,244.400 263.686 L 247.400 263.329 244.600 263.315 C 243.060 263.307,240.990 263.444,240.000 263.620 M146.481 271.088 C 146.216 271.971,146.021 273.212,146.046 273.846 C 146.077 274.617,146.147 274.735,146.257 274.200 C 146.347 273.760,146.618 272.746,146.859 271.946 C 147.100 271.147,147.222 270.266,147.129 269.988 C 147.037 269.711,146.745 270.206,146.481 271.088 M145.220 277.869 C 144.972 279.151,144.506 281.310,144.185 282.666 C 143.863 284.022,143.623 285.732,143.650 286.466 C 143.700 287.790,143.702 287.788,144.003 286.200 C 144.881 281.561,145.267 279.620,145.656 277.876 C 145.893 276.818,145.993 275.859,145.879 275.745 C 145.765 275.631,145.468 276.587,145.220 277.869 M208.679 283.033 C 208.282 285.215,207.768 287.751,207.536 288.670 C 207.303 289.588,207.196 290.578,207.298 290.870 C 207.400 291.161,207.696 290.320,207.957 289.000 C 208.218 287.680,208.713 285.340,209.057 283.800 C 209.401 282.260,209.619 280.565,209.541 280.033 C 209.464 279.501,209.076 280.851,208.679 283.033 M143.088 288.533 C 142.930 288.936,142.811 289.656,142.825 290.133 C 142.849 290.956,142.871 290.950,143.240 290.025 C 143.454 289.489,143.573 288.769,143.503 288.425 C 143.399 287.911,143.325 287.930,143.088 288.533 M142.320 292.600 C 141.940 295.299,141.160 299.324,140.720 300.854 C 140.490 301.653,140.388 302.553,140.493 302.854 C 140.597 303.154,140.899 302.320,141.163 301.000 C 141.427 299.680,141.924 297.244,142.268 295.586 C 142.611 293.928,142.814 292.218,142.719 291.786 C 142.611 291.298,142.460 291.606,142.320 292.600 M206.702 293.000 C 206.541 293.880,206.133 295.950,205.795 297.600 C 205.016 301.407,204.606 304.982,205.198 302.800 C 205.407 302.030,205.768 300.230,205.999 298.800 C 206.230 297.370,206.607 295.726,206.838 295.147 C 207.069 294.569,207.199 293.489,207.126 292.747 L 206.995 291.400 206.702 293.000 M139.894 305.200 C 139.527 307.206,138.584 312.051,137.791 316.000 C 137.415 317.870,137.041 320.030,136.960 320.800 C 136.790 322.395,137.666 318.904,138.590 314.301 C 138.932 312.597,139.499 309.884,139.849 308.273 C 140.199 306.661,140.410 304.995,140.318 304.571 C 140.203 304.043,140.069 304.242,139.894 305.200 M204.052 306.900 C 203.769 308.275,203.267 310.750,202.936 312.400 C 202.604 314.050,202.077 316.570,201.765 318.000 C 201.453 319.430,201.219 321.050,201.245 321.600 C 201.283 322.400,201.355 322.320,201.607 321.200 C 202.196 318.580,204.255 308.156,204.669 305.700 C 205.057 303.395,204.582 304.319,204.052 306.900 M136.318 323.400 C 136.188 324.060,135.801 326.130,135.459 328.000 C 135.116 329.870,134.718 331.802,134.573 332.293 C 134.081 333.965,134.893 334.005,167.126 333.905 L 197.800 333.810 166.800 333.605 C 133.139 333.382,134.753 333.500,135.245 331.309 C 136.489 325.776,136.866 323.647,136.720 322.971 C 136.595 322.391,136.496 322.497,136.318 323.400 M200.849 323.200 C 200.816 323.530,200.689 324.250,200.567 324.800 C 200.375 325.664,200.407 325.703,200.799 325.088 C 201.048 324.697,201.175 323.977,201.081 323.488 C 200.986 323.000,200.882 322.870,200.849 323.200 M200.000 327.109 C 200.000 327.718,199.664 329.428,199.254 330.909 C 198.421 333.912,198.477 334.347,199.410 332.115 C 200.064 330.548,200.695 326.000,200.257 326.000 C 200.116 326.000,200.000 326.499,200.000 327.109 " stroke="none" fill="#8d9eb1" fill-rule="evenodd"></path><path id="path6" d="M120.063 96.800 C 119.152 97.460,118.296 98.000,118.161 98.000 C 118.026 98.000,117.259 98.495,116.456 99.100 C 115.653 99.705,114.698 100.380,114.333 100.600 C 113.298 101.223,102.519 108.731,100.800 110.026 C 100.250 110.440,95.750 113.780,90.800 117.448 C 85.850 121.116,81.740 124.270,81.667 124.458 C 81.593 124.646,81.354 124.800,81.134 124.800 C 80.804 124.800,77.493 127.259,76.800 128.019 C 76.690 128.140,75.970 128.671,75.200 129.200 C 74.430 129.729,73.710 130.261,73.600 130.384 C 73.490 130.506,71.600 132.033,69.400 133.779 C 67.200 135.524,65.310 137.053,65.200 137.176 C 65.090 137.299,64.102 138.120,63.005 139.000 C 58.410 142.684,58.368 142.638,66.800 143.182 C 85.176 144.367,170.801 145.947,170.800 145.100 C 170.800 144.935,165.895 144.800,159.900 144.801 C 153.905 144.802,142.610 144.613,134.800 144.383 C 126.990 144.153,112.320 143.799,102.200 143.596 C 80.780 143.168,61.200 142.385,61.200 141.956 C 61.200 141.544,64.160 138.827,67.151 136.494 C 71.827 132.846,75.150 130.234,75.800 129.695 C 77.435 128.339,102.141 109.935,104.259 108.496 C 104.666 108.219,106.209 107.139,107.687 106.096 C 111.473 103.425,114.864 101.114,118.762 98.551 L 122.123 96.340 141.562 96.567 C 152.253 96.692,166.400 96.861,173.000 96.943 C 182.546 97.062,183.650 97.028,178.400 96.780 C 174.770 96.609,167.840 96.280,163.000 96.050 C 158.160 95.820,146.892 95.624,137.960 95.616 L 121.720 95.600 120.063 96.800 " stroke="none" fill="#d59492" fill-rule="evenodd"></path><path id="path7" d="M105.559 148.171 C 104.812 148.705,102.805 150.084,101.100 151.236 C 99.395 152.388,98.000 153.481,98.000 153.665 C 98.000 153.849,97.812 154.000,97.582 154.000 C 97.249 154.000,93.344 156.724,91.400 158.313 C 91.180 158.493,90.685 158.761,90.300 158.908 C 89.915 159.055,89.600 159.361,89.600 159.587 C 89.600 159.814,89.409 160.000,89.177 160.000 C 88.816 160.000,85.808 162.138,85.200 162.826 C 85.090 162.951,84.158 163.625,83.130 164.325 C 82.101 165.025,81.021 165.831,80.730 166.117 C 80.438 166.403,76.150 169.680,71.200 173.399 C 66.250 177.117,62.110 180.267,62.000 180.399 C 61.890 180.530,60.685 181.487,59.323 182.525 C 57.960 183.563,56.610 184.640,56.323 184.919 C 56.035 185.197,54.685 186.277,53.323 187.319 C 51.960 188.360,50.610 189.440,50.323 189.719 C 50.035 189.997,48.720 191.054,47.400 192.068 C 44.016 194.667,42.934 195.894,43.515 196.475 C 44.173 197.133,55.906 197.949,65.200 197.984 C 69.490 197.999,75.629 198.191,78.843 198.410 C 82.057 198.629,95.917 198.996,109.643 199.226 C 123.369 199.456,140.338 199.748,147.350 199.874 C 158.081 200.067,160.072 200.016,159.917 199.551 C 159.765 199.094,155.287 198.958,133.567 198.755 C 108.001 198.515,88.784 198.049,67.000 197.141 C 61.060 196.893,53.680 196.610,50.600 196.512 C 43.454 196.283,43.492 196.398,49.070 191.809 C 51.672 189.669,54.168 187.610,54.618 187.233 C 55.068 186.857,56.688 185.592,58.218 184.424 C 59.748 183.255,61.060 182.142,61.133 181.950 C 61.207 181.757,61.430 181.600,61.629 181.600 C 61.828 181.600,62.308 181.342,62.695 181.028 C 63.083 180.713,63.940 180.016,64.600 179.480 C 65.260 178.943,69.220 175.927,73.400 172.778 C 77.580 169.628,81.238 166.815,81.529 166.526 C 81.819 166.237,82.181 166.000,82.333 166.000 C 82.484 166.000,83.056 165.586,83.604 165.080 C 84.152 164.574,85.706 163.410,87.057 162.494 C 88.409 161.578,89.764 160.597,90.068 160.314 C 90.373 160.031,91.247 159.358,92.011 158.818 C 92.775 158.278,93.580 157.686,93.800 157.504 C 94.020 157.322,95.820 156.018,97.800 154.606 C 99.780 153.195,101.617 151.851,101.883 151.620 C 102.149 151.389,102.483 151.200,102.626 151.200 C 102.768 151.200,103.558 150.667,104.380 150.016 C 106.844 148.064,108.012 147.977,126.064 148.399 C 146.377 148.874,173.528 148.848,165.200 148.362 C 157.646 147.921,126.376 147.181,115.759 147.191 C 107.046 147.200,106.899 147.214,105.559 148.171 " stroke="none" fill="#b9dc94" fill-rule="evenodd"></path><path id="path8" d="M159.100 95.895 C 160.255 95.976,162.145 95.976,163.300 95.895 C 164.455 95.814,163.510 95.748,161.200 95.748 C 158.890 95.748,157.945 95.814,159.100 95.895 M169.705 96.287 C 170.314 96.379,171.214 96.377,171.705 96.282 C 172.197 96.187,171.700 96.111,170.600 96.114 C 169.500 96.117,169.097 96.195,169.705 96.287 M174.105 96.687 C 174.714 96.779,175.614 96.777,176.105 96.682 C 176.597 96.587,176.100 96.511,175.000 96.514 C 173.900 96.517,173.497 96.595,174.105 96.687 M228.400 97.244 C 251.390 97.391,271.100 97.617,272.200 97.746 C 274.043 97.962,274.106 97.943,273.000 97.502 C 272.096 97.141,261.299 97.017,229.200 96.999 L 186.600 96.975 228.400 97.244 M278.200 98.609 C 280.829 99.339,282.243 99.324,280.200 98.588 C 279.320 98.271,278.060 98.021,277.400 98.033 C 276.422 98.050,276.570 98.157,278.200 98.609 M283.800 99.812 C 284.680 100.129,285.760 100.383,286.200 100.376 C 286.649 100.370,286.299 100.112,285.400 99.788 C 284.520 99.471,283.440 99.217,283.000 99.224 C 282.551 99.230,282.901 99.488,283.800 99.812 M289.800 101.452 C 291.340 101.995,292.960 102.538,293.400 102.657 C 294.964 103.081,292.243 101.768,290.125 101.077 C 286.917 100.030,286.649 100.340,289.800 101.452 M294.976 103.413 C 295.404 103.736,295.952 104.000,296.195 104.000 C 296.730 104.000,302.908 107.153,305.171 108.582 C 306.067 109.147,306.800 109.423,306.800 109.195 C 306.800 108.967,306.395 108.597,305.900 108.373 C 305.405 108.149,303.920 107.347,302.600 106.591 C 301.280 105.835,299.930 105.105,299.600 104.968 C 299.270 104.831,298.128 104.288,297.063 103.760 C 294.913 102.694,293.777 102.505,294.976 103.413 M307.790 110.248 C 308.147 110.604,308.559 110.774,308.707 110.626 C 308.856 110.478,308.712 110.189,308.388 109.984 C 307.443 109.387,307.087 109.544,307.790 110.248 M309.388 111.181 C 309.887 111.987,312.006 113.281,311.754 112.625 C 311.622 112.281,311.283 112.000,311.000 112.000 C 310.717 112.000,310.382 111.730,310.255 111.400 C 310.129 111.070,309.829 110.800,309.589 110.800 C 309.349 110.800,309.259 110.972,309.388 111.181 M315.211 115.913 C 316.867 117.452,319.285 119.988,320.585 121.548 C 321.885 123.108,323.026 124.307,323.122 124.212 C 323.217 124.116,323.049 123.785,322.748 123.475 C 322.446 123.165,321.660 122.223,321.000 121.383 C 319.366 119.302,314.913 114.922,313.420 113.928 C 312.749 113.481,313.555 114.374,315.211 115.913 M323.692 125.500 C 324.030 125.885,325.138 127.448,326.154 128.974 C 327.169 130.500,328.000 131.562,328.000 131.334 C 328.000 131.107,327.460 130.175,326.800 129.263 C 326.140 128.352,325.600 127.508,325.600 127.387 C 325.600 126.937,323.835 124.800,323.463 124.800 C 323.250 124.800,323.353 125.115,323.692 125.500 M328.474 133.002 C 328.725 133.553,329.007 133.926,329.101 133.832 C 329.384 133.549,328.775 132.000,328.382 132.000 C 328.181 132.000,328.223 132.451,328.474 133.002 M329.552 135.100 C 329.983 135.940,330.950 138.163,331.576 139.752 C 331.826 140.385,332.146 140.787,332.288 140.645 C 332.430 140.503,332.334 140.174,332.073 139.913 C 331.813 139.653,331.600 139.208,331.600 138.924 C 331.600 138.122,329.890 134.400,329.522 134.400 C 329.341 134.400,329.355 134.715,329.552 135.100 M332.421 141.600 C 332.444 142.497,333.529 144.716,333.568 143.946 C 333.585 143.586,333.331 142.776,333.002 142.146 C 332.674 141.516,332.412 141.270,332.421 141.600 M61.305 143.087 C 61.914 143.179,62.814 143.177,63.305 143.082 C 63.797 142.987,63.300 142.911,62.200 142.914 C 61.100 142.917,60.697 142.995,61.305 143.087 M69.505 143.483 C 70.002 143.579,70.722 143.575,71.105 143.475 C 71.487 143.375,71.080 143.296,70.200 143.301 C 69.320 143.305,69.007 143.387,69.505 143.483 M73.091 143.889 C 73.801 143.977,75.061 143.979,75.891 143.892 C 76.721 143.805,76.140 143.733,74.600 143.731 C 73.060 143.729,72.381 143.800,73.091 143.889 M85.500 144.296 C 86.875 144.374,89.125 144.374,90.500 144.296 C 91.875 144.218,90.750 144.154,88.000 144.154 C 85.250 144.154,84.125 144.218,85.500 144.296 M105.091 144.689 C 105.801 144.777,107.061 144.779,107.891 144.692 C 108.721 144.605,108.140 144.533,106.600 144.531 C 105.060 144.529,104.381 144.600,105.091 144.689 M112.082 145.096 C 113.558 145.173,116.078 145.173,117.682 145.097 C 119.287 145.021,118.080 144.958,115.000 144.958 C 111.920 144.957,110.607 145.019,112.082 145.096 M333.616 145.454 C 333.607 145.924,333.863 146.914,334.184 147.654 C 334.636 148.695,334.772 148.807,334.784 148.146 C 334.793 147.676,334.537 146.686,334.216 145.946 C 333.764 144.905,333.628 144.793,333.616 145.454 M161.273 145.496 C 169.966 145.610,170.354 145.648,170.526 146.413 C 170.673 147.065,170.697 147.045,170.653 146.306 L 170.600 145.400 161.400 145.389 L 152.200 145.378 161.273 145.496 M334.824 150.200 C 334.817 150.640,335.067 151.810,335.379 152.800 C 335.788 154.098,335.952 154.321,335.967 153.600 C 335.979 153.050,335.729 151.880,335.412 151.000 C 335.088 150.102,334.830 149.751,334.824 150.200 M233.623 157.144 C 233.331 157.849,233.202 158.535,233.335 158.668 C 233.632 158.966,234.480 156.839,234.290 156.271 C 234.215 156.046,233.915 156.439,233.623 157.144 M255.000 156.628 C 256.100 156.934,257.540 157.176,258.200 157.165 C 259.176 157.150,259.027 157.042,257.400 156.591 C 256.300 156.285,254.860 156.043,254.200 156.053 C 253.225 156.068,253.375 156.176,255.000 156.628 M336.292 159.200 C 336.686 162.523,336.691 174.148,336.301 177.800 C 336.049 180.161,336.076 180.412,336.475 179.400 C 337.164 177.652,337.179 158.952,336.492 157.600 C 336.056 156.741,336.028 156.966,336.292 159.200 M260.400 157.557 C 260.400 157.753,260.895 158.029,261.500 158.170 C 262.584 158.424,265.210 159.602,265.600 160.009 C 266.280 160.721,268.000 161.554,268.000 161.172 C 268.000 160.926,267.640 160.631,267.200 160.516 C 266.760 160.401,266.400 160.190,266.400 160.048 C 266.400 159.905,265.455 159.369,264.300 158.856 C 263.145 158.343,261.887 157.760,261.505 157.561 C 260.633 157.108,260.400 157.107,260.400 157.557 M232.705 161.400 C 232.573 162.280,232.334 163.522,232.174 164.159 C 231.975 164.954,232.021 165.234,232.319 165.050 C 232.817 164.742,233.359 161.663,233.111 160.547 C 233.015 160.115,232.844 160.475,232.705 161.400 M268.418 161.631 C 268.408 161.758,269.216 162.748,270.214 163.831 C 271.212 164.914,272.131 166.205,272.257 166.700 C 272.384 167.195,272.647 167.600,272.843 167.600 C 273.040 167.600,273.200 167.926,273.200 168.324 C 273.200 169.023,274.362 170.932,274.387 170.275 C 274.440 168.940,268.518 160.364,268.418 161.631 M231.667 167.126 C 231.630 167.856,231.408 168.811,231.174 169.248 C 230.940 169.686,230.828 170.259,230.926 170.522 C 231.251 171.391,232.042 168.672,231.887 167.223 L 231.734 165.800 231.667 167.126 M274.687 173.600 C 275.021 177.249,275.022 177.756,274.699 181.800 C 274.495 184.357,274.521 184.638,274.826 183.200 C 275.585 179.619,275.661 175.878,275.027 173.200 L 274.413 170.600 274.687 173.600 M230.308 173.800 C 230.147 174.680,229.922 175.940,229.806 176.600 L 229.597 177.800 230.220 176.451 C 230.562 175.709,230.788 174.449,230.721 173.651 L 230.600 172.200 230.308 173.800 M229.095 179.900 C 228.933 180.615,228.710 181.785,228.601 182.500 L 228.402 183.800 229.023 182.450 C 229.364 181.707,229.586 180.537,229.516 179.850 L 229.389 178.600 229.095 179.900 M335.257 185.070 C 334.958 186.429,334.809 187.779,334.925 188.070 C 335.042 188.362,335.151 188.183,335.168 187.674 C 335.186 187.164,335.391 186.391,335.624 185.955 C 335.857 185.520,335.992 184.586,335.924 183.882 C 335.820 182.805,335.713 182.996,335.257 185.070 M227.700 186.919 C 227.010 189.531,227.106 190.577,227.843 188.473 C 228.176 187.523,228.393 186.359,228.324 185.886 C 228.241 185.312,228.034 185.655,227.700 186.919 M273.611 186.171 C 273.385 186.765,273.200 187.500,273.200 187.802 C 273.200 188.105,273.020 188.464,272.800 188.600 C 272.580 188.736,272.400 189.053,272.400 189.304 C 272.400 190.161,273.134 189.030,273.754 187.216 C 274.413 185.290,274.289 184.387,273.611 186.171 M334.100 191.167 C 333.393 193.458,333.513 194.556,334.243 192.473 C 334.576 191.523,334.792 190.476,334.724 190.147 C 334.656 189.817,334.375 190.276,334.100 191.167 M270.934 192.093 C 269.592 194.336,265.800 198.532,264.800 198.881 C 264.470 198.996,264.312 199.213,264.450 199.362 C 265.167 200.141,272.700 191.500,272.314 190.341 C 272.249 190.146,271.628 190.934,270.934 192.093 M226.500 193.231 C 225.828 196.176,225.900 196.995,226.643 194.873 C 226.976 193.924,227.192 192.673,227.124 192.093 C 227.032 191.308,226.873 191.598,226.500 193.231 M332.834 196.400 C 332.555 197.390,332.073 198.791,331.763 199.514 C 331.453 200.236,331.200 201.085,331.200 201.400 C 331.200 201.939,330.369 204.090,329.523 205.739 C 329.315 206.145,329.240 206.574,329.357 206.691 C 329.474 206.808,329.782 206.385,330.041 205.752 C 330.300 205.118,330.757 204.033,331.056 203.340 C 331.355 202.646,331.600 201.812,331.600 201.485 C 331.600 201.159,331.869 200.376,332.198 199.746 C 332.526 199.116,332.796 198.231,332.798 197.780 C 332.799 197.329,332.997 196.763,333.238 196.522 C 333.478 196.282,333.600 195.751,333.508 195.342 C 333.400 194.859,333.165 195.228,332.834 196.400 M225.451 198.600 C 225.270 199.260,224.976 200.790,224.797 202.000 C 224.618 203.210,224.346 204.515,224.193 204.900 C 224.036 205.295,224.095 205.600,224.328 205.600 C 224.556 205.600,224.857 204.565,224.998 203.300 C 225.138 202.035,225.437 200.622,225.662 200.160 C 225.887 199.698,226.006 198.888,225.925 198.360 C 225.787 197.453,225.761 197.466,225.451 198.600 M94.100 199.076 C 94.485 199.176,95.115 199.176,95.500 199.076 C 95.885 198.975,95.570 198.893,94.800 198.893 C 94.030 198.893,93.715 198.975,94.100 199.076 M159.573 201.800 C 159.340 203.417,160.352 203.385,128.629 202.777 C 100.905 202.246,98.032 202.339,96.956 203.798 C 96.712 204.129,96.378 204.400,96.213 204.400 C 96.049 204.400,95.259 204.895,94.456 205.500 C 92.809 206.742,91.679 207.477,90.800 207.880 C 90.470 208.031,89.997 208.345,89.749 208.578 C 89.501 208.810,88.961 209.227,88.549 209.504 C 86.865 210.638,82.167 213.991,81.717 214.381 C 81.451 214.612,81.055 214.800,80.837 214.800 C 80.618 214.800,80.296 215.035,80.120 215.322 C 79.944 215.609,79.125 216.254,78.300 216.755 C 77.475 217.255,76.800 217.831,76.800 218.033 C 76.800 218.235,76.612 218.400,76.382 218.400 C 76.051 218.400,72.501 220.872,70.200 222.705 C 69.980 222.880,68.904 223.648,67.809 224.412 C 65.386 226.102,65.253 226.201,64.000 227.259 C 63.450 227.723,62.145 228.635,61.100 229.286 C 60.055 229.936,59.200 230.633,59.200 230.834 C 59.200 231.035,58.975 231.201,58.700 231.202 C 58.425 231.203,57.625 231.743,56.922 232.402 C 56.219 233.061,55.539 233.600,55.411 233.600 C 54.996 233.600,51.200 236.562,51.200 236.885 C 51.200 237.058,51.022 237.200,50.804 237.200 C 50.453 237.200,45.705 240.598,45.200 241.212 C 45.090 241.345,43.765 242.394,42.256 243.543 C 40.747 244.691,39.284 245.849,39.005 246.115 C 38.726 246.382,38.098 246.870,37.608 247.200 C 37.119 247.530,36.152 248.292,35.459 248.894 C 34.767 249.495,34.065 249.990,33.900 249.994 C 33.735 249.997,33.600 250.251,33.600 250.557 C 33.600 250.864,33.330 251.218,33.000 251.345 C 32.088 251.695,32.284 252.760,33.300 252.979 C 34.926 253.331,38.834 253.544,51.400 253.968 C 58.220 254.198,66.347 254.570,69.459 254.793 C 72.572 255.017,79.142 255.211,84.059 255.223 C 88.977 255.236,97.320 255.438,102.600 255.671 C 107.880 255.904,120.390 256.208,130.400 256.347 L 148.600 256.600 148.506 258.200 C 148.433 259.437,148.495 259.619,148.778 259.000 C 150.159 255.981,150.736 256.096,132.800 255.822 C 124.770 255.699,109.200 255.333,98.200 255.009 C 87.200 254.685,71.810 254.234,64.000 254.008 C 56.190 253.781,47.910 253.417,45.600 253.198 C 43.290 252.980,39.690 252.798,37.600 252.794 C 31.096 252.783,31.494 252.243,46.000 241.393 C 48.310 239.665,50.290 238.127,50.400 237.976 C 50.510 237.825,51.230 237.269,52.000 236.740 C 52.770 236.212,55.215 234.434,57.433 232.790 C 66.455 226.102,80.053 216.166,84.000 213.379 C 86.310 211.748,88.380 210.273,88.600 210.101 C 88.820 209.929,91.151 208.351,93.780 206.594 L 98.559 203.400 128.792 203.546 C 161.740 203.706,160.293 203.800,159.904 201.522 C 159.767 200.722,159.723 200.758,159.573 201.800 M260.812 201.184 C 260.488 201.389,260.341 201.675,260.486 201.819 C 260.630 201.963,261.160 201.793,261.663 201.441 C 262.649 200.750,261.870 200.515,260.812 201.184 M258.000 202.600 C 257.373 203.355,257.610 203.356,259.054 202.602 C 260.047 202.085,260.087 202.005,259.349 202.002 C 258.881 202.001,258.274 202.270,258.000 202.600 M254.800 203.800 C 253.487 204.550,254.337 204.561,256.054 203.816 C 256.983 203.412,257.152 203.231,256.600 203.230 C 256.160 203.229,255.350 203.486,254.800 203.800 M249.000 205.017 L 247.400 205.573 248.800 205.418 C 249.570 205.333,250.830 205.088,251.600 204.873 L 253.000 204.482 251.800 204.472 C 251.140 204.466,249.880 204.712,249.000 205.017 M328.504 208.274 C 327.966 209.433,328.209 210.147,328.816 209.188 C 329.147 208.665,329.357 207.195,329.100 207.203 C 329.045 207.205,328.777 207.687,328.504 208.274 M326.735 212.237 C 326.150 213.427,325.792 214.400,325.941 214.400 C 326.270 214.400,328.182 210.447,327.959 210.229 C 327.871 210.144,327.321 211.047,326.735 212.237 M324.586 216.258 C 324.154 217.106,323.665 217.860,323.500 217.933 C 323.071 218.124,323.128 218.800,323.573 218.800 C 323.778 218.800,324.070 218.395,324.220 217.900 C 324.371 217.405,324.762 216.695,325.088 216.323 C 325.415 215.951,325.612 215.437,325.527 215.181 C 325.442 214.925,325.018 215.409,324.586 216.258 M320.571 222.862 C 319.974 223.818,318.955 225.275,318.308 226.100 C 317.661 226.926,317.372 227.507,317.666 227.392 C 318.287 227.150,322.109 221.576,321.839 221.306 C 321.739 221.206,321.169 221.906,320.571 222.862 M316.329 228.541 C 316.038 228.838,315.080 229.953,314.200 231.017 C 313.320 232.082,312.224 233.324,311.764 233.777 C 309.412 236.095,304.737 240.381,303.065 241.753 C 302.024 242.607,301.254 243.387,301.353 243.486 C 301.452 243.585,301.875 243.337,302.292 242.933 C 302.709 242.530,303.939 241.490,305.025 240.623 C 307.501 238.646,315.099 231.037,316.332 229.300 C 317.276 227.970,317.274 227.573,316.329 228.541 M299.029 244.811 C 298.165 245.465,297.625 245.995,297.829 245.989 C 298.207 245.978,301.165 243.621,300.800 243.622 C 300.690 243.622,299.893 244.157,299.029 244.811 M292.413 249.091 C 291.889 249.682,291.903 249.723,292.546 249.476 C 292.942 249.324,293.341 249.200,293.433 249.200 C 293.525 249.200,293.600 249.020,293.600 248.800 C 293.600 248.212,293.081 248.339,292.413 249.091 M286.000 252.444 C 283.030 253.949,280.319 255.185,279.976 255.190 C 279.238 255.202,277.581 256.369,278.276 256.387 C 278.538 256.394,278.864 256.220,279.000 256.000 C 279.136 255.780,279.546 255.600,279.911 255.600 C 280.442 255.600,290.935 250.688,291.567 250.144 C 292.500 249.339,290.473 250.177,286.000 252.444 M275.400 257.014 C 274.735 257.319,274.491 257.572,274.854 257.582 C 275.214 257.592,276.024 257.331,276.654 257.002 C 278.084 256.257,277.032 256.267,275.400 257.014 M272.000 258.200 C 270.667 258.962,271.594 258.964,273.054 258.202 C 273.684 257.874,273.930 257.610,273.600 257.617 C 273.270 257.623,272.550 257.886,272.000 258.200 M268.580 259.161 C 268.371 259.360,267.840 259.609,267.400 259.715 C 266.748 259.872,266.785 259.913,267.600 259.941 C 268.150 259.959,268.949 259.710,269.376 259.387 C 269.958 258.947,270.003 258.800,269.556 258.800 C 269.228 258.800,268.789 258.963,268.580 259.161 M147.905 261.400 C 147.199 265.515,147.170 266.352,147.809 264.200 C 148.136 263.100,148.353 261.660,148.291 261.000 C 148.189 259.895,148.158 259.927,147.905 261.400 M263.200 260.625 L 261.800 261.155 263.000 261.163 C 263.660 261.168,264.650 260.914,265.200 260.600 C 266.533 259.838,265.238 259.854,263.200 260.625 M258.000 261.820 L 256.200 262.336 257.600 262.354 C 258.370 262.364,259.450 262.114,260.000 261.800 C 261.203 261.112,260.444 261.120,258.000 261.820 M252.665 262.668 C 252.518 262.816,251.183 263.073,249.699 263.240 L 247.000 263.544 250.315 263.437 C 253.160 263.346,256.290 262.400,253.747 262.400 C 253.299 262.400,252.813 262.521,252.665 262.668 M241.000 264.000 C 240.340 264.168,233.806 264.327,226.480 264.353 L 213.159 264.400 212.580 265.787 C 212.261 266.550,212.021 267.675,212.047 268.287 L 212.095 269.400 212.377 268.400 C 212.532 267.850,212.801 266.827,212.974 266.126 L 213.290 264.851 228.345 264.714 C 238.631 264.620,243.717 264.430,244.400 264.114 C 245.624 263.547,243.111 263.463,241.000 264.000 M146.690 268.300 C 145.973 271.512,145.945 272.327,146.612 270.600 C 146.953 269.720,147.175 268.550,147.106 268.000 C 146.992 267.088,146.955 267.114,146.690 268.300 M211.249 272.047 C 210.946 273.282,210.797 274.542,210.917 274.847 C 211.045 275.167,211.150 275.011,211.168 274.474 C 211.186 273.964,211.391 273.190,211.625 272.754 C 211.858 272.318,211.993 271.474,211.925 270.880 C 211.828 270.046,211.674 270.312,211.249 272.047 M145.300 274.919 C 144.596 277.585,144.721 279.038,145.451 276.663 C 145.778 275.597,145.991 274.344,145.923 273.877 C 145.842 273.318,145.629 273.676,145.300 274.919 M210.100 277.719 C 209.410 280.331,209.506 281.377,210.243 279.273 C 210.576 278.323,210.793 277.159,210.724 276.686 C 210.641 276.112,210.434 276.455,210.100 277.719 M144.266 280.400 C 143.583 283.545,143.560 284.719,144.222 282.663 C 144.565 281.597,144.784 280.337,144.708 279.863 C 144.603 279.207,144.497 279.336,144.266 280.400 M208.846 284.600 C 208.588 285.920,208.110 288.170,207.784 289.600 C 207.459 291.030,207.217 292.650,207.247 293.200 C 207.303 294.246,207.510 293.427,208.410 288.600 C 208.657 287.280,209.047 285.546,209.278 284.746 C 209.509 283.947,209.612 283.047,209.507 282.746 C 209.403 282.446,209.105 283.280,208.846 284.600 M142.877 287.738 C 142.615 288.464,142.421 289.584,142.446 290.228 C 142.477 290.997,142.549 291.125,142.657 290.600 C 142.747 290.160,143.025 289.124,143.275 288.298 C 143.845 286.414,143.520 285.958,142.877 287.738 M141.694 293.446 C 141.422 294.352,141.212 295.612,141.226 296.246 C 141.246 297.096,141.407 296.825,141.840 295.216 C 142.536 292.624,142.408 291.066,141.694 293.446 M206.696 295.333 C 206.233 296.479,206.316 297.444,206.834 296.926 C 207.072 296.688,207.206 296.067,207.130 295.546 C 207.009 294.713,206.957 294.688,206.696 295.333 M206.065 298.600 C 206.027 299.260,205.805 300.486,205.572 301.324 C 205.340 302.162,205.226 303.062,205.320 303.324 C 205.626 304.174,206.450 300.391,206.290 298.873 C 206.154 297.587,206.126 297.552,206.065 298.600 M140.250 300.450 C 140.113 301.137,140.023 302.262,140.050 302.950 C 140.097 304.111,140.122 304.086,140.411 302.600 C 140.582 301.720,140.851 300.595,141.008 300.100 C 141.173 299.580,141.126 299.200,140.897 299.200 C 140.678 299.200,140.388 299.762,140.250 300.450 M204.690 305.477 C 204.580 306.315,204.359 307.405,204.199 307.900 C 204.022 308.445,204.071 308.800,204.325 308.800 C 204.753 308.800,205.460 304.527,205.093 304.159 C 204.980 304.047,204.799 304.640,204.690 305.477 M139.190 306.226 C 138.976 306.790,138.821 307.825,138.846 308.526 L 138.892 309.800 139.211 308.400 C 139.387 307.630,139.657 306.595,139.812 306.100 C 140.201 304.856,139.670 304.963,139.190 306.226 M203.667 311.240 C 203.630 311.812,203.399 312.857,203.154 313.561 C 202.908 314.265,202.813 314.947,202.943 315.076 C 203.374 315.507,204.041 313.065,203.887 311.623 C 203.780 310.624,203.714 310.510,203.667 311.240 M138.046 312.039 C 137.801 312.743,137.621 313.968,137.646 314.760 C 137.672 315.552,137.768 315.840,137.859 315.400 C 137.951 314.960,138.225 313.830,138.468 312.889 C 138.995 310.848,138.682 310.216,138.046 312.039 M202.467 317.240 C 202.430 317.812,202.199 318.857,201.954 319.561 C 201.708 320.265,201.613 320.947,201.743 321.076 C 202.174 321.507,202.841 319.065,202.687 317.623 C 202.580 316.624,202.514 316.510,202.467 317.240 M136.994 317.610 C 136.854 317.836,136.671 319.051,136.587 320.310 C 136.454 322.302,136.476 322.391,136.757 321.000 C 136.934 320.120,137.216 318.905,137.383 318.300 C 137.686 317.204,137.475 316.831,136.994 317.610 M201.103 323.600 C 200.982 324.370,200.754 325.405,200.595 325.900 C 200.420 326.447,200.472 326.800,200.729 326.800 C 201.187 326.800,201.798 323.582,201.502 322.725 C 201.403 322.436,201.223 322.830,201.103 323.600 M135.794 323.610 C 135.654 323.836,135.471 325.051,135.387 326.310 C 135.254 328.302,135.276 328.391,135.557 327.000 C 135.734 326.120,136.016 324.905,136.183 324.300 C 136.486 323.204,136.275 322.831,135.794 323.610 M134.700 329.431 C 134.535 329.597,134.411 330.288,134.425 330.967 C 134.450 332.173,134.459 332.179,134.840 331.225 C 135.269 330.152,135.175 328.952,134.700 329.431 M200.060 329.851 C 199.944 331.496,198.843 333.495,197.916 333.744 C 196.344 334.165,136.549 334.037,135.426 333.610 C 134.779 333.364,134.400 333.361,134.400 333.602 C 134.400 334.369,136.734 334.418,167.600 334.310 L 199.000 334.200 199.728 332.711 C 200.128 331.892,200.380 330.722,200.288 330.111 C 200.168 329.320,200.103 329.245,200.060 329.851 " stroke="none" fill="#b6c0cd" fill-rule="evenodd"></path></g></svg>